<svg xmlns="http://www.w3.org/2000/svg" xmlns:xlink="http://www.w3.org/1999/xlink" width="331" height="163" viewBox="0 0 331 163">
    <defs>
        <path id="t64xxr2j6a" d="M250.023 74.658c91.057-8.073 145.878 23.56 183.456 60.854 37.578 37.295 175.798 229.551 84.25 312.972-91.547 83.421-208.916 78.929-293.131 5.408-84.214-73.52-152.478-67.26-161.782-179.304-9.304-112.043 96.15-191.857 187.207-199.93z"/>
        <path id="hslvjtbj3d" d="M0 191.12L174.649 191.12 174.649 0.001 0 0.001z"/>
        <path id="ok8nsnh3xf" d="M3.368.293L.988 6.068s-1.5.635-.667 2.026c.831 1.39 3.562 2.62 4.253 2.613 1.444-.014-1.669-3.475-1.669-3.475L5.82.075 3.368.293"/>
        <path id="8k1fwejo7i" d="M20.664 25.56c.75-2.786 1.537-5.624 2.344-8.47C16.574 15.073.175 9.681.175 9.681c.595-2.314 1.644-4.34 2.122-5.224C3.83 1.625 13.183-.388 16.54.07c2.92.398 6.523 2.675 9.166 3.97 4.4 2.156 10.691 7.066 8.13 12.345-4.403 8.663-9.279 18.66-13.82 27.25-.325-.04-3.078-1.337-3.368-1.477.828-3.362 2.206-9.89 4.015-16.598"/>
        <path id="9mmy6etoxl" d="M13.723 41.989c.92-2.735 1.875-5.52 2.853-8.311C11.498 27.66.154 6.333.154 6.333.886 4.06 3.935 1.481 5.548.603c2.825-1.539 4.59 1.363 7.915 2.025 2.891.576 7.327 10.668 8.993 12.929 3.307 4.492 7.036 12.706 6.284 14.805-.59 1.4-.78 2.532-1.312 3.271-4.92 8.379-10.961 18.623-16.016 26.92-.32-.06-2.456-1.882-2.736-2.04 1.028-3.305 2.836-9.939 5.047-16.524"/>
        <path id="x0r2ufwtfo" d="M.082.371l.487 11.596s4.5 3.98 7.097 3.767C10.686 15.486 5.97.123 5.97.123L.082.37"/>
        <path id="eeytzjylqr" d="M4.852.786c-.455.288-6.717 3.526-3.964 11.93.806 4.115 6.415 9.381 9.565-.532C12.318 6.31 9.914-2.413 4.853.786"/>
        <path id="tprunalasu" d="M1.957 1.166S.057-1.16.027 1.077c-.023 1.775 1.265 1.99 1.265 1.99l.665-1.901"/>
        <path id="eu3xx9fngx" d="M1.156 5.356C2.584 2.888 8.383.307 12.007.741c0 0 2.056 2.376 5.713 1.324 2.614-.753 2.818-1.512 2.82-1.789.004-.921 7.032 1.538 8.851 3.041 2.155 1.778 2.744 21.118.641 39.586-.375.737-24.791 8.47-27.739 6.921C-.635 48.286-.29 7.856 1.156 5.356"/>
        <path id="71b2djpotA" d="M.26 7.082C.564 6.92 28.316-.083 28.346.014c.342 1.165.211.496.322 1.073C28.293 1.824 1.11 8.884.583 8.013.321 7.58-.082 7.265.26 7.082"/>
        <path id="awzq21wldD" d="M2.038 4.191L0.651 1.58 2.971 0.131 5.184 1.652 4.174 4.334 6.504 31.215 4.042 37.125 0.062 31.544 2.038 4.191"/>
        <path id="bjqgjt17yG" d="M11.123.172s-1.378 3.482-8.018.44c-1.597.207-2.96.642-2.96.642s3.213 3.542 5.356 4.15c.214-.358 3.133-2.737 3.133-2.737l3.264 2.093s1.09-1.851 1.125-3.998c-.134-.215-1.383-.528-1.9-.59"/>
        <path id="zfccioe0fJ" d="M0.499 2.69L3.379 2.046 2.926 0.016 0.047 0.661 0.499 2.69"/>
        <path id="3sulv1wnsM" d="M6.183 2.322c-.303-.033-.61-.067-.925-.104C4.975 2.184-.056-1.96.09 1.334c.136 3.078 3.863 3.854 3.863 3.854s.776.465 2.231.987V2.322"/>
        <path id="bx8gpd1weP" d="M2.114 23.134c.364-.427 1.172.957 7 2.19.091-.125.188-5.33.16-9.799-.322-3.338-.778-10.633-1.771-14.393-.474-1.794.4-.896 1.523-.302 2.905 1.538 8.148 8.163 7.67 23.307.086 1.12-.25 3.043-.633 4.174l.035.007c-.045.093-.094.188-.14.282-.037.091-.072.176-.11.25-.057.12-.127.235-.203.346-.472.847-1.013 1.635-1.401 2.02C11.459 33.966 6.69 32.621 0 27.262c1.112-2.225 1.387-3.275 2.114-4.128"/>
        <path id="28yfjnlozS" d="M4.658.97L.216 10.648c-.233.509.128 1.902.59 1.897l5.484-.79c.206-.003.393-.146.488-.377l4.257-10.144c.222-.53-.112-1.189-.58-1.143L5.096.62c-.185.018-.346.148-.44.35"/>
        <path id="3z7xjerm2V" d="M4.545 2.897C2.83 4.72-3.162 25.922 2.55 27.371c12.037 3.052 19.312-1.332 19.312-1.332s3.725-.775 3.861-3.853c.146-3.294-4.885.85-5.169.884-8.497 1.01-13.618.324-13.266-1.515.946-4.975.667-16.411 2.242-20.144.993-2.353-2.327-1.33-4.984 1.486"/>
        <path id="ct5urzzkjY" d="M.198 25.86C-.112 9.272 5.718 2.092 8.921.45c1.238-.634 1.788-.163 1.592 1.507C9.15 13.54 8.608 23.328 7.816 26.625c6.632 1 12.611.372 12.83.96.43 1.149.251.826 1.11 3.661-8.88 3.015-18.855 3.656-20.699-.215-.486-1.022-.989-3.72-.859-5.172"/>
        <linearGradient id="bm3ced1d3g" x1="43.364%" x2="70.578%" y1="34.386%" y2="59.792%">
            <stop offset="0%" stop-color="#D6EBF3"/>
            <stop offset="100%" stop-color="#A5CAE1"/>
        </linearGradient>
        <linearGradient id="iyiv1ws9cj" x1="128.025%" x2="14.58%" y1="116.911%" y2="14.053%">
            <stop offset="0%" stop-color="#32527D"/>
            <stop offset="100%" stop-color="#041F36"/>
        </linearGradient>
        <linearGradient id="6eyxzki7am" x1="83.594%" x2="30.56%" y1="94.872%" y2="30.255%">
            <stop offset="0%" stop-color="#32527D"/>
            <stop offset="100%" stop-color="#041F36"/>
        </linearGradient>
        <linearGradient id="j51bq5wjfp" x1="100.009%" x2=".01%" y1="50%" y2="50%">
            <stop offset="0%" stop-color="#D8B8BA"/>
            <stop offset="100%" stop-color="#D49EA3"/>
        </linearGradient>
        <linearGradient id="fcd7tvf0hs" x1="68.487%" x2="31.231%" y1="56.775%" y2="41.223%">
            <stop offset="0%" stop-color="#F7D1D2"/>
            <stop offset="100%" stop-color="#E6AAAF"/>
        </linearGradient>
        <linearGradient id="mvgxdg47tv" x1="25.724%" x2="67.67%" y1="40.946%" y2="57.428%">
            <stop offset="0%" stop-color="#F7D1D2"/>
            <stop offset="100%" stop-color="#E6AAAF"/>
        </linearGradient>
        <linearGradient id="0ij10bgx6y" x1="99.997%" x2="-.002%" y1="50%" y2="50%">
            <stop offset="0%" stop-color="#D6EBF3"/>
            <stop offset="100%" stop-color="#A5CAE1"/>
        </linearGradient>
        <linearGradient id="sv7dvyi84B" x1="70.007%" x2="30.668%" y1="55.573%" y2="44.417%">
            <stop offset="0%" stop-color="#32527D"/>
            <stop offset="100%" stop-color="#041F36"/>
        </linearGradient>
        <linearGradient id="4et13nrsdE" x1="100%" x2="-.021%" y1="50%" y2="50%">
            <stop offset="0%" stop-color="#669FCA"/>
            <stop offset="100%" stop-color="#3D659A"/>
        </linearGradient>
        <linearGradient id="5fsow3yt6H" x1="93.934%" x2="17.286%" y1="39.333%" y2="57.356%">
            <stop offset="0%" stop-color="#D6EBF3"/>
            <stop offset="100%" stop-color="#A5CAE1"/>
        </linearGradient>
        <linearGradient id="sks7wdpy4K" x1="93.002%" x2="6.96%" y1="78.512%" y2="21.493%">
            <stop offset="0%" stop-color="#32527D"/>
            <stop offset="100%" stop-color="#041F36"/>
        </linearGradient>
        <linearGradient id="9qvhk2g9lN" x1="8.03%" x2="76.66%" y1="-184.744%" y2="167.301%">
            <stop offset="0%" stop-color="#F7D1D2"/>
            <stop offset="100%" stop-color="#E6AAAF"/>
        </linearGradient>
        <linearGradient id="hbgclbwliQ" x1="208.011%" x2=".003%" y1="50%" y2="50%">
            <stop offset="0%" stop-color="#D6EBF3"/>
            <stop offset="100%" stop-color="#A5CAE1"/>
        </linearGradient>
        <linearGradient id="ftxxb21i4T" x1="52.825%" x2="43.938%" y1="18.416%" y2="108.599%">
            <stop offset="0%" stop-color="#32527D"/>
            <stop offset="100%" stop-color="#041F36"/>
        </linearGradient>
        <linearGradient id="3soyj005iW" x1="57.851%" x2="44.462%" y1="27.095%" y2="102.996%">
            <stop offset="0%" stop-color="#F7D1D2"/>
            <stop offset="100%" stop-color="#E6AAAF"/>
        </linearGradient>
        <linearGradient id="yswai0oypZ" x1="100%" x2="-.003%" y1="50%" y2="50%">
            <stop offset="0%" stop-color="#D6EBF3"/>
            <stop offset="100%" stop-color="#A5CAE1"/>
        </linearGradient>
        <filter id="73uvvxty3c">
            <feColorMatrix in="SourceGraphic" values="0 0 0 0 0.749020 0 0 0 0 0.905882 0 0 0 0 0.933333 0 0 0 1.000000 0"/>
        </filter>
    </defs>
    <g fill="none" fill-rule="evenodd">
        <g>
            <g>
                <g>
                    <g transform="translate(-22 -24) translate(24 24) translate(-144 -373)">
                        <mask id="jmx7lpau5b" fill="#fff">
                            <use xlink:href="#t64xxr2j6a"/>
                        </mask>
                        <use fill="#F7FEFF" opacity=".7" transform="rotate(-159 305.375 291.715)" xlink:href="#t64xxr2j6a"/>
                        <g mask="url(#jmx7lpau5b)">
                            <g>
                                <g opacity=".4">
                                    <g>
                                        <g filter="url(#73uvvxty3c)" transform="translate(-1902 -22.52) translate(0 157.54)">
                                            <g transform="translate(2201 180.98)">
                                                <path fill="#000" d="M163.482 69.59c0 1.69 1.365 3.061 3.055 3.061h1.365c1.684 0 3.055-1.371 3.055-3.061h-7.475z"/>
                                                <mask id="oyxila1moe" fill="#fff">
                                                    <use xlink:href="#hslvjtbj3d"/>
                                                </mask>
                                                <path fill="#000" d="M163.475 69.707L163.793 69.707 163.793 65.124 163.475 65.124zM170.644 69.707L170.97 69.707 170.97 65.124 170.644 65.124zM167.05 69.707L167.369 69.707 167.369 65.124 167.05 65.124z" mask="url(#oyxila1moe)"/>
                                                <path fill="#000" d="M171.302 65.435c-2.697.526-5.466.526-8.164 0-.123-.026-.227-.156-.227-.28v-.87c0-.124.104-.254.227-.28 2.698-.527 5.467-.527 8.164 0 .13.026.228.156.228.28v.87c0 .124-.098.254-.228.28" mask="url(#oyxila1moe)"/>
                                                <path fill="#000" d="M167.424 61.89L164.993 64.327 164.785 64.119 167.222 61.682z" mask="url(#oyxila1moe)"/>
                                                <path fill="#000" d="M167.221 61.69L169.658 64.128 169.45 64.336 167.013 61.898zM166.592 91.156c0 1.69 1.372 3.061 3.062 3.061h1.365c1.683 0 3.055-1.371 3.055-3.061h-7.482z" mask="url(#oyxila1moe)"/>
                                                <path fill="#000" d="M166.595 91.267L166.913 91.267 166.913 86.685 166.595 86.685zM173.758 91.267L174.077 91.267 174.077 86.685 173.758 86.685zM170.157 91.267L170.482 91.267 170.482 86.685 170.157 86.685z" mask="url(#oyxila1moe)"/>
                                                <path fill="#000" d="M174.413 87.001c-2.691.527-5.467.527-8.158 0-.13-.026-.234-.156-.234-.28v-.87c0-.13.104-.254.234-.28 2.691-.526 5.467-.526 8.158 0 .13.026.234.15.234.28v.87c0 .124-.104.254-.234.28" mask="url(#oyxila1moe)"/>
                                                <path fill="#000" d="M170.541 83.456L168.103 85.894 167.901 85.679 170.333 83.248z" mask="url(#oyxila1moe)"/>
                                                <path fill="#000" d="M170.337 83.256L172.768 85.693 172.567 85.895 170.129 83.464zM163.57 112.494c0 1.69 1.372 3.061 3.062 3.061h1.365c1.684 0 3.049-1.371 3.049-3.061h-7.475z" mask="url(#oyxila1moe)"/>
                                                <path fill="#000" d="M163.572 112.607L163.891 112.607 163.891 108.024 163.572 108.024zM170.736 112.607L171.054 112.607 171.054 108.024 170.736 108.024zM167.141 112.607L167.459 112.607 167.459 108.024 167.141 108.024z" mask="url(#oyxila1moe)"/>
                                                <path fill="#000" d="M171.391 108.335c-2.69.527-5.466.527-8.157 0-.13-.025-.234-.149-.234-.279v-.871c0-.124.104-.254.234-.28 2.69-.526 5.466-.526 8.157 0 .13.026.234.156.234.28v.871c0 .13-.104.254-.234.28" mask="url(#oyxila1moe)"/>
                                                <path fill="#000" d="M167.519 104.794L165.082 107.225 164.88 107.017 167.311 104.586z" mask="url(#oyxila1moe)"/>
                                                <path fill="#000" d="M167.316 104.594L169.747 107.032 169.545 107.24 167.108 104.802zM87.278 16.152c-37.108 0-67.3 30.186-67.3 67.294 0 37.109 30.192 67.301 67.3 67.301 37.109 0 67.301-30.192 67.301-67.3 0-37.11-30.192-67.295-67.3-67.295m0 135.564c-37.642 0-68.27-30.628-68.27-68.27 0-37.641 30.628-68.27 68.27-68.27 37.64 0 68.269 30.629 68.269 68.27 0 37.642-30.628 68.27-68.27 68.27" mask="url(#oyxila1moe)"/>
                                                <path fill="#000" d="M87.278 48.519c-19.26 0-34.924 15.671-34.924 34.93 0 19.254 15.665 34.925 34.924 34.925 19.26 0 34.925-15.671 34.925-34.924 0-19.26-15.665-34.931-34.925-34.931m0 70.824c-19.799 0-35.9-16.107-35.9-35.893 0-19.8 16.101-35.9 35.9-35.9 19.793 0 35.893 16.1 35.893 35.9 0 19.786-16.1 35.893-35.893 35.893" mask="url(#oyxila1moe)"/>
                                                <path fill="#000" d="M87.278 1.168c-45.363 0-82.277 36.907-82.277 82.277 0 45.377 36.914 82.277 82.277 82.277 45.37 0 82.277-36.9 82.277-82.277 0-45.37-36.907-82.277-82.277-82.277m0 165.724c-46.013 0-83.447-37.433-83.447-83.447 0-46.013 37.434-83.447 83.447-83.447 46.014 0 83.447 37.434 83.447 83.447 0 46.014-37.433 83.447-83.447 83.447" mask="url(#oyxila1moe)"/>
                                                <path fill="#000" d="M92.306 83.446c0 2.776-2.256 5.025-5.025 5.025-2.782 0-5.03-2.25-5.03-5.025 0-2.775 2.248-5.024 5.03-5.024 2.77 0 5.025 2.249 5.025 5.024" mask="url(#oyxila1moe)"/>
                                                <path fill="#000" d="M87.278 78.905c-2.502 0-4.537 2.034-4.537 4.543 0 2.503 2.035 4.537 4.537 4.537 2.503 0 4.537-2.034 4.537-4.537 0-2.509-2.034-4.543-4.537-4.543m0 10.055c-3.042 0-5.518-2.47-5.518-5.512 0-3.042 2.476-5.512 5.518-5.512s5.519 2.47 5.519 5.512c0 3.042-2.477 5.512-5.519 5.512M87.278 166.309L87.278.579" mask="url(#oyxila1moe)"/>
                                                <path fill="#000" d="M87.081 166.31L87.471 166.31 87.471.586 87.081.586zM4.416 83.446L170.14 83.446" mask="url(#oyxila1moe)"/>
                                                <path fill="#000" d="M4.413 83.643L170.137 83.643 170.137 83.253 4.413 83.253zM28.683 142.042L145.872 24.853" mask="url(#oyxila1moe)"/>
                                                <path fill="#000" d="M28.823 142.175L28.543 141.902 145.732 24.714 146.005 24.987zM28.683 24.851L145.872 142.04" mask="url(#oyxila1moe)"/>
                                                <path fill="#000" d="M145.734 142.175L28.545 24.987 28.825 24.714 146.007 141.902zM159.039 124.878L15.519 42.016" mask="url(#oyxila1moe)"/>
                                                <path fill="#000" d="M158.943 125.043L15.417 42.181 15.612 41.843 159.138 124.705zM45.847 155.207L128.709 11.681" mask="url(#oyxila1moe)"/>
                                                <path fill="#000" d="M46.012 155.308L45.674 155.113 128.536 11.587 128.874 11.782zM108.727 163.484L65.827 3.409" mask="url(#oyxila1moe)"/>
                                                <path fill="#000" d="M108.536 163.535L65.636 3.453 66.02 3.355 108.913 163.437zM7.234 104.895L167.316 62.002" mask="url(#oyxila1moe)"/>
                                                <path fill="#000" d="M7.285 105.08L7.181 104.709 167.27 61.809 167.367 62.186zM167.316 104.895L7.234 62.002" mask="url(#oyxila1moe)"/>
                                                <path fill="#000" d="M167.272 105.08L7.183 62.186 7.287 61.809 167.369 104.709zM65.829 163.484L108.729 3.409" mask="url(#oyxila1moe)"/>
                                                <path fill="#000" d="M66.02 163.535L65.636 163.437 108.536 3.355 108.913 3.453zM128.71 155.207L45.848 11.681" mask="url(#oyxila1moe)"/>
                                                <path fill="#000" d="M128.538 155.308L45.676 11.782 46.014 11.587 128.876 155.113zM15.518 124.878L159.038 42.016" mask="url(#oyxila1moe)"/>
                                                <path fill="#000" d="M15.613 125.043L15.418 124.705 158.945 41.843 159.139 42.181zM98.095 165.598L76.463 1.291" mask="url(#oyxila1moe)"/>
                                                <path fill="#000" d="M97.898 165.63L76.266 1.316 76.649 1.264 98.288 165.571zM5.121 94.263L169.428 72.631" mask="url(#oyxila1moe)"/>
                                                <path fill="#000" d="M5.146 94.457L5.094 94.067 169.408 72.435 169.46 72.825zM36.834 149.183L137.72 17.707" mask="url(#oyxila1moe)"/>
                                                <path fill="#000" d="M36.986 149.304L36.68 149.07 137.567 17.588 137.879 17.822zM21.536 33.002L153.018 133.888" mask="url(#oyxila1moe)"/>
                                                <path fill="#000" d="M152.9 134.05L21.418 33.157 21.659 32.852 153.134 133.732zM163.831 115.16L10.717 51.739" mask="url(#oyxila1moe)"/>
                                                <path fill="#000" d="M163.755 115.337L10.648 51.917 10.797 51.553 163.905 114.98zM55.565 159.999L118.986 6.892" mask="url(#oyxila1moe)"/>
                                                <path fill="#000" d="M55.749 160.076L55.385 159.926 118.812 6.812 119.17 6.962zM118.985 159.999L55.565 6.892" mask="url(#oyxila1moe)"/>
                                                <path fill="#000" d="M118.814 160.076L55.386 6.962 55.751 6.812 119.171 159.926zM10.719 115.16L163.833 51.739" mask="url(#oyxila1moe)"/>
                                                <path fill="#000" d="M10.795 115.337L10.652 114.98 163.753 51.553 163.909 51.917zM169.43 94.263L5.123 72.631" mask="url(#oyxila1moe)"/>
                                                <path fill="#000" d="M169.404 94.457L5.097 72.825 5.143 72.435 169.463 94.067zM76.462 165.598L98.094 1.291" mask="url(#oyxila1moe)"/>
                                                <path fill="#000" d="M76.653 165.63L76.263 165.571 97.901 1.264 98.285 1.316zM137.723 149.183L36.837 17.707" mask="url(#oyxila1moe)"/>
                                                <path fill="#000" d="M137.565 149.304L36.678 17.822 36.984 17.588 137.883 149.07zM21.536 133.892L153.018 33.005" mask="url(#oyxila1moe)"/>
                                                <path fill="#000" d="M21.656 134.05L21.422 133.732 152.898 32.852 153.138 33.157zM83.533 174.06c0 1.69 1.372 3.061 3.062 3.061h1.365c1.683 0 3.055-1.371 3.055-3.061h-7.482z" mask="url(#oyxila1moe)"/>
                                                <path fill="#000" d="M83.531 174.175L83.85 174.175 83.85 169.592 83.531 169.592zM90.701 174.175L91.019 174.175 91.019 169.592 90.701 169.592zM87.106 174.175L87.425 174.175 87.425 169.592 87.106 169.592z" mask="url(#oyxila1moe)"/>
                                                <path fill="#000" d="M91.354 169.902c-2.691.526-5.467.526-8.158 0-.123-.026-.234-.15-.234-.28v-.871c0-.123.11-.253.234-.28 2.691-.526 5.467-.526 8.158 0 .13.027.234.157.234.28v.871c0 .13-.098.254-.234.28" mask="url(#oyxila1moe)"/>
                                                <path fill="#000" d="M87.482 166.36L85.044 168.791 84.843 168.589 87.274 166.152z" mask="url(#oyxila1moe)"/>
                                                <path fill="#000" d="M87.278 166.157L89.709 168.594 89.508 168.802 87.07 166.365zM62.11 171.267c0 1.69 1.365 3.061 3.055 3.061h1.365c1.684 0 3.055-1.371 3.055-3.061H62.11z" mask="url(#oyxila1moe)"/>
                                                <path fill="#000" d="M62.101 171.38L62.419 171.38 62.419 166.797 62.101 166.797zM69.27 171.38L69.596 171.38 69.596 166.797 69.27 166.797zM65.676 171.38L65.995 171.38 65.995 166.797 65.676 166.797z" mask="url(#oyxila1moe)"/>
                                                <path fill="#000" d="M69.93 167.108c-2.697.527-5.466.527-8.164 0-.123-.025-.227-.149-.227-.279v-.871c0-.124.104-.254.227-.28 2.698-.526 5.467-.526 8.164 0 .13.026.228.156.228.28v.871c0 .13-.098.254-.228.28" mask="url(#oyxila1moe)"/>
                                                <path fill="#000" d="M66.052 163.567L63.621 165.998 63.413 165.79 65.85 163.359z" mask="url(#oyxila1moe)"/>
                                                <path fill="#000" d="M65.849 163.364L68.286 165.801 68.078 166.009 65.641 163.572zM42.235 162.951c0 1.69 1.372 3.055 3.062 3.055h1.365c1.683 0 3.055-1.365 3.055-3.055h-7.482z" mask="url(#oyxila1moe)"/>
                                                <path fill="#000" d="M42.237 163.066L42.556 163.066 42.556 158.484 42.237 158.484zM49.4 163.066L49.718 163.066 49.718 158.484 49.4 158.484zM45.812 163.066L46.13 163.066 46.13 158.484 45.812 158.484z" mask="url(#oyxila1moe)"/>
                                                <path fill="#000" d="M50.056 158.793c-2.691.527-5.467.527-8.158 0-.123-.026-.234-.15-.234-.286v-.864c0-.124.11-.254.234-.28 2.691-.526 5.467-.526 8.158 0 .136.026.234.156.234.28v.864c0 .137-.098.26-.234.286" mask="url(#oyxila1moe)"/>
                                                <path fill="#000" d="M46.184 155.245L43.746 157.682 43.545 157.474 45.976 155.043z" mask="url(#oyxila1moe)"/>
                                                <path fill="#000" d="M45.98 155.048L48.411 157.486 48.21 157.687 45.772 155.256zM24.976 149.811c0 1.69 1.372 3.055 3.062 3.055h1.365c1.683 0 3.048-1.365 3.048-3.055h-7.475z" mask="url(#oyxila1moe)"/>
                                                <path fill="#000" d="M24.973 149.923L25.291 149.923 25.291 145.334 24.973 145.334zM32.142 149.923L32.461 149.923 32.461 145.334 32.142 145.334zM28.541 149.923L28.86 149.923 28.86 145.334 28.541 145.334z" mask="url(#oyxila1moe)"/>
                                                <path fill="#000" d="M32.796 145.654c-2.697.526-5.466.526-8.157 0-.13-.026-.234-.156-.234-.286v-.865c0-.123.104-.253.234-.286 2.69-.52 5.46-.52 8.157 0 .13.033.234.163.234.286v.865c0 .13-.104.26-.234.286" mask="url(#oyxila1moe)"/>
                                                <path fill="#000" d="M28.924 142.106L26.487 144.543 26.285 144.335 28.716 141.904z" mask="url(#oyxila1moe)"/>
                                                <path fill="#000" d="M28.715 141.909L31.153 144.346 30.945 144.548 28.514 142.117zM11.836 132.641c0 1.69 1.372 3.055 3.062 3.055h1.365c1.683 0 3.048-1.365 3.048-3.055h-7.475z" mask="url(#oyxila1moe)"/>
                                                <path fill="#000" d="M11.83 132.757L12.155 132.757 12.155 128.174 11.83 128.174zM19.006 132.757L19.325 132.757 19.325 128.174 19.006 128.174zM15.405 132.757L15.723 132.757 15.723 128.174 15.405 128.174z" mask="url(#oyxila1moe)"/>
                                                <path fill="#000" d="M19.657 128.484c-2.698.526-5.467.526-8.164 0-.124-.026-.228-.15-.228-.286v-.865c0-.123.104-.253.228-.286 2.697-.52 5.466-.52 8.164 0 .13.033.227.163.227.286v.865c0 .136-.097.26-.227.286" mask="url(#oyxila1moe)"/>
                                                <path fill="#000" d="M15.785 124.935L13.347 127.373 13.139 127.165 15.577 124.734z" mask="url(#oyxila1moe)"/>
                                                <path fill="#000" d="M15.575 124.738L18.013 127.176 17.805 127.377 15.374 124.946zM3.502 112.677c0 1.69 1.372 3.055 3.062 3.055h1.365c1.683 0 3.048-1.364 3.048-3.055H3.502z" mask="url(#oyxila1moe)"/>
                                                <path fill="#000" d="M3.503 112.789L3.822 112.789 3.822 108.206 3.503 108.206zM10.666 112.789L10.985 112.789 10.985 108.206 10.666 108.206zM7.072 112.789L7.397 112.789 7.397 108.206 7.072 108.206z" mask="url(#oyxila1moe)"/>
                                                <path fill="#000" d="M11.322 108.52c-2.69.527-5.466.527-8.157 0-.13-.026-.234-.15-.234-.286v-.864c0-.124.104-.254.234-.28 2.69-.526 5.466-.526 8.157 0 .13.026.234.156.234.28v.864c0 .137-.104.26-.234.286" mask="url(#oyxila1moe)"/>
                                                <path fill="#000" d="M7.45 104.972L5.013 107.409 4.811 107.201 7.242 104.77z" mask="url(#oyxila1moe)"/>
                                                <path fill="#000" d="M7.247 104.775L9.678 107.212 9.47 107.414 7.039 104.983zM.576 91.293c0 1.69 1.365 3.061 3.055 3.061h1.365c1.683 0 3.055-1.371 3.055-3.061H.576z" mask="url(#oyxila1moe)"/>
                                                <path fill="#000" d="M.572 91.404L.89 91.404.89 86.821.572 86.821zM7.735 91.404L8.053 91.404 8.053 86.821 7.735 86.821zM4.141 91.404L4.459 91.404 4.459 86.821 4.141 86.821z" mask="url(#oyxila1moe)"/>
                                                <path fill="#000" d="M8.39 87.138c-2.691.526-5.46.526-8.158 0-.123-.026-.234-.156-.234-.28v-.87c0-.124.11-.254.234-.28 2.698-.527 5.467-.527 8.158 0 .136.026.234.156.234.28v.87c0 .124-.098.254-.234.28" mask="url(#oyxila1moe)"/>
                                                <path fill="#000" d="M4.518 83.593L2.087 86.03 1.879 85.822 4.316 83.385z" mask="url(#oyxila1moe)"/>
                                                <path fill="#000" d="M4.315 83.396L6.752 85.833 6.544 86.035 4.107 83.604zM3.413 69.774c0 1.69 1.365 3.061 3.055 3.061h1.365c1.684 0 3.055-1.371 3.055-3.061H3.413z" mask="url(#oyxila1moe)"/>
                                                <path fill="#000" d="M3.406 69.889L3.724 69.889 3.724 65.306 3.406 65.306zM10.575 69.889L10.9 69.889 10.9 65.306 10.575 65.306zM6.981 69.889L7.3 69.889 7.3 65.306 6.981 65.306z" mask="url(#oyxila1moe)"/>
                                                <path fill="#000" d="M11.233 65.62c-2.697.526-5.466.526-8.164 0-.123-.027-.227-.157-.234-.28v-.871c0-.13.11-.254.234-.28 2.698-.526 5.467-.526 8.164 0 .13.026.228.15.228.28v.871c0 .123-.098.253-.228.28" mask="url(#oyxila1moe)"/>
                                                <path fill="#000" d="M7.355 62.071L4.924 64.509 4.716 64.301 7.153 61.863z" mask="url(#oyxila1moe)"/>
                                                <path fill="#000" d="M7.152 61.874L9.589 64.312 9.381 64.52 6.95 62.082zM155.236 132.501c0 1.69 1.372 3.062 3.062 3.062h1.365c1.683 0 3.055-1.372 3.055-3.062h-7.482z" mask="url(#oyxila1moe)"/>
                                                <path fill="#000" d="M155.239 132.614L155.558 132.614 155.558 128.031 155.239 128.031zM162.403 132.614L162.721 132.614 162.721 128.031 162.403 128.031zM158.802 132.614L159.126 132.614 159.126 128.031 158.802 128.031z" mask="url(#oyxila1moe)"/>
                                                <path fill="#000" d="M163.056 128.344c-2.69.526-5.466.526-8.157 0-.124-.026-.234-.15-.234-.28v-.87c0-.124.11-.254.234-.28 2.69-.527 5.466-.527 8.157 0 .13.026.234.156.234.28v.87c0 .13-.097.254-.234.28" mask="url(#oyxila1moe)"/>
                                                <path fill="#000" d="M159.184 124.801L156.747 127.232 156.545 127.031 158.976 124.593z" mask="url(#oyxila1moe)"/>
                                                <path fill="#000" d="M158.982 124.605L161.413 127.036 161.211 127.244 158.774 124.806zM142.052 149.583c0 1.683 1.372 3.055 3.062 3.055h1.365c1.683 0 3.048-1.372 3.048-3.055h-7.475z" mask="url(#oyxila1moe)"/>
                                                <path fill="#000" d="M142.044 149.689L142.369 149.689 142.369 145.107 142.044 145.107zM149.22 149.689L149.539 149.689 149.539 145.107 149.22 145.107zM145.619 149.689L145.938 149.689 145.938 145.107 145.619 145.107z" mask="url(#oyxila1moe)"/>
                                                <path fill="#000" d="M149.872 145.425c-2.697.527-5.466.527-8.157 0-.13-.032-.234-.156-.234-.286v-.864c0-.124.104-.254.234-.286 2.69-.527 5.46-.527 8.157 0 .13.032.234.162.234.286v.864c0 .13-.104.254-.234.286" mask="url(#oyxila1moe)"/>
                                                <path fill="#000" d="M146 141.877L143.563 144.314 143.355 144.106 145.792 141.675z" mask="url(#oyxila1moe)"/>
                                                <path fill="#000" d="M145.791 141.68L148.229 144.117 148.021 144.319 145.59 141.888zM125.022 162.951c0 1.69 1.365 3.055 3.061 3.055h1.359c1.683 0 3.055-1.365 3.055-3.055h-7.475z" mask="url(#oyxila1moe)"/>
                                                <path fill="#000" d="M125.014 163.066L125.333 163.066 125.333 158.484 125.014 158.484zM132.184 163.066L132.509 163.066 132.509 158.484 132.184 158.484zM128.589 163.066L128.908 163.066 128.908 158.484 128.589 158.484z" mask="url(#oyxila1moe)"/>
                                                <path fill="#000" d="M132.835 158.793c-2.69.527-5.46.527-8.157 0-.124-.026-.228-.15-.228-.286v-.864c0-.124.104-.254.228-.28 2.697-.526 5.466-.526 8.157 0 .137.026.234.156.234.28v.864c0 .137-.097.26-.234.286" mask="url(#oyxila1moe)"/>
                                                <path fill="#000" d="M128.963 155.245L126.532 157.682 126.324 157.474 128.762 155.043z" mask="url(#oyxila1moe)"/>
                                                <path fill="#000" d="M128.76 155.048L131.198 157.486 130.99 157.687 128.559 155.256zM104.918 171.235c0 1.69 1.372 3.061 3.062 3.061h1.365c1.683 0 3.055-1.371 3.055-3.061h-7.482z" mask="url(#oyxila1moe)"/>
                                                <path fill="#000" d="M104.916 171.347L105.235 171.347 105.235 166.765 104.916 166.765zM112.086 171.347L112.404 171.347 112.404 166.765 112.086 166.765zM108.485 171.347L108.803 171.347 108.803 166.765 108.485 166.765z" mask="url(#oyxila1moe)"/>
                                                <path fill="#000" d="M112.739 167.083c-2.691.52-5.467.52-8.158 0-.13-.032-.234-.156-.234-.286v-.864c0-.13.104-.26.234-.286 2.691-.527 5.467-.527 8.158 0 .13.026.234.156.234.286v.864c0 .13-.104.254-.234.286" mask="url(#oyxila1moe)"/>
                                                <path fill="#000" d="M108.867 163.535L106.429 165.966 106.228 165.764 108.659 163.327z" mask="url(#oyxila1moe)"/>
                                                <path fill="#000" d="M108.664 163.339L111.095 165.769 110.893 165.977 108.456 163.54zM86.466 82.31L39.926 186.739 49.169 186.739zM88.091 82.31L134.624 186.739 125.381 186.739z" mask="url(#oyxila1moe)"/>
                                                <path fill="#000" d="M32.702 191.12L142.331 191.12 142.331 185.446 32.702 185.446z" mask="url(#oyxila1moe)"/>
                                                <path fill="#000" d="M37.291 188.358L46.254 188.358 46.254 181.715 37.291 181.715zM128.466 189.014L137.982 189.014 137.982 182.365 128.466 182.365zM56.309 183.567L116.636 183.567 116.636 179.635 56.309 179.635z" mask="url(#oyxila1moe)"/>
                                                <path fill="#000" d="M54.919 184.718L111.663 184.718 111.663 180.785 54.919 180.785z" mask="url(#oyxila1moe)"/>
                                                <path fill="#000" d="M53.358 185.673L110.097 185.673 110.097 181.741 53.358 181.741z" mask="url(#oyxila1moe)"/>
                                                <path fill="#000" d="M51.974 186.824L108.713 186.824 108.713 182.885 51.974 182.885z" mask="url(#oyxila1moe)"/>
                                                <path fill="#000" d="M50.59 187.786L107.328 187.786 107.328 183.853 50.59 183.853z" mask="url(#oyxila1moe)"/>
                                                <path fill="#000" d="M49.023 188.793L105.768 188.793 105.768 184.854 49.023 184.854zM60.651 184.672L117.93 184.672 117.93 180.733 60.651 180.733z" mask="url(#oyxila1moe)"/>
                                                <path fill="#000" d="M62.231 185.634L119.502 185.634 119.502 181.702 62.231 181.702z" mask="url(#oyxila1moe)"/>
                                                <path fill="#000" d="M63.629 186.772L120.9 186.772 120.9 182.839 63.629 182.839z" mask="url(#oyxila1moe)"/>
                                                <path fill="#000" d="M65.026 187.74L122.297 187.74 122.297 183.801 65.026 183.801z" mask="url(#oyxila1moe)"/>
                                                <path fill="#000" d="M66.606 188.748L123.877 188.748 123.877 184.809 66.606 184.809zM57.675 180.109L58.058 180.109 58.058 174.526 57.675 174.526zM59.514 180.109L59.891 180.109 59.891 174.526 59.514 174.526zM61.34 180.109L61.724 180.109 61.724 174.526 61.34 174.526zM63.167 180.109L63.55 180.109 63.55 174.526 63.167 174.526zM65 180.109L65.377 180.109 65.377 174.526 65 174.526zM66.833 180.109L67.21 180.109 67.21 174.526 66.833 174.526zM68.659 180.109L69.043 180.109 69.043 174.526 68.659 174.526zM70.486 180.109L70.87 180.109 70.87 174.526 70.486 174.526zM72.319 180.109L72.696 180.109 72.696 174.526 72.319 174.526zM74.145 180.109L74.529 180.109 74.529 174.526 74.145 174.526zM75.978 180.109L76.362 180.109 76.362 174.526 75.978 174.526zM77.811 180.109L78.189 180.109 78.189 174.526 77.811 174.526zM79.638 180.109L80.015 180.109 80.015 174.526 79.638 174.526zM81.465 180.109L81.848 180.109 81.848 174.526 81.465 174.526zM83.297 180.109L83.681 180.109 83.681 174.526 83.297 174.526zM85.13 180.109L85.507 180.109 85.507 174.526 85.13 174.526zM86.957 180.109L87.341 180.109 87.341 174.526 86.957 174.526zM88.784 180.109L89.167 180.109 89.167 174.526 88.784 174.526zM90.623 180.109L91 180.109 91 174.526 90.623 174.526zM92.45 180.109L92.826 180.109 92.826 174.526 92.45 174.526zM94.276 180.109L94.659 180.109 94.659 174.526 94.276 174.526zM96.109 180.109L96.486 180.109 96.486 174.526 96.109 174.526zM97.942 180.109L98.319 180.109 98.319 174.526 97.942 174.526zM99.769 180.109L100.152 180.109 100.152 174.526 99.769 174.526zM101.595 180.109L101.978 180.109 101.978 174.526 101.595 174.526zM103.428 180.109L103.805 180.109 103.805 174.526 103.428 174.526zM105.261 180.109L105.644 180.109 105.644 174.526 105.261 174.526zM107.088 180.109L107.471 180.109 107.471 174.526 107.088 174.526zM108.921 180.109L109.297 180.109 109.297 174.526 108.921 174.526zM110.747 180.109L111.124 180.109 111.124 174.526 110.747 174.526zM112.58 180.109L112.963 180.109 112.963 174.526 112.58 174.526zM114.406 180.109L114.79 180.109 114.79 174.526 114.406 174.526z" mask="url(#oyxila1moe)"/>
                                                <path fill="#000" d="M58.026 174.786L114.66 174.786 114.66 174.526 58.026 174.526z" mask="url(#oyxila1moe)"/>
                                            </g>
                                        </g>
                                        <path fill="#65C8D0" d="M2124.684 323.304L2124.684 315.727 2133.914 315.727 2133.914 330.882 2182.37 330.882 2182.37 295.52 2196.214 295.52 2196.214 305.623 2210.059 305.623 2210.059 315.727 2216.981 315.727 2216.981 237.426 2244.67 237.426 2244.67 320.778 2256.207 320.778 2256.207 232.375 2258.515 232.375 2258.515 188.734 2258.515 185.392 2258.515 174.281 2265.437 174.281 2265.437 184.384 2286.204 184.384 2286.204 202.065 2290.819 202.065 2290.819 232.375 2293.126 232.375 2293.126 328.356 2293.894 328.356 2304.663 328.356 2304.663 262.685 2318.508 262.685 2318.508 280.365 2378.501 280.365 2378.501 202.065 2394.653 202.065 2394.653 184.384 2408.497 184.384 2408.497 202.065 2431.572 202.065 2431.572 313.201 2452.338 313.201 2452.338 275.314 2466.183 275.314 2466.183 262.685 2473.105 262.685 2473.105 181.859 2480.027 181.859 2480.027 159.126 2482.335 159.126 2482.335 181.859 2505.409 181.859 2505.409 313.201 2572.324 313.201 2572.324 22.732 2586.169 22.732 2586.169 10.103 2593.091 10.103 2593.091 0 2597.706 0 2597.706 10.103 2620.78 10.103 2620.78 22.732 2653.084 22.732 2653.084 247.53 2664.621 247.53 2664.621 149.023 2687.696 149.023 2687.696 237.426 2694.618 237.426 2694.618 32.836 2699.233 32.836 2699.233 17.681 2701.54 17.681 2701.54 35.361 2749.996 35.361 2749.996 268.764 2791.53 267.228 2791.53 176.807 2828.451 176.807 2828.451 265.21 2849.215 265.21 2849.215 106.084 2874.597 106.084 2874.597 90.929 2893.056 90.929 2893.056 60.62 2893.056 45.465 2897.671 45.465 2897.671 30.31 2899.978 30.31 2899.978 45.465 2906.901 45.465 2906.901 60.62 2925.36 60.62 2925.36 154.075 2941.512 154.075 2941.512 191.962 2957.664 191.962 2957.664 214.694 2976.123 214.694 2976.123 209.642 2989.968 209.642 2989.968 262.685 3006.12 262.685 3006.12 295.52 3019.965 295.52 3019.965 303.098 3033.809 303.098 3033.809 333.407 3007.65 333.407 3004.821 333.407 2925.579 333.407 2910.016 333.407 2900.11 333.407 2893.033 333.407 2881.715 333.407 2876.055 333.407 2850.586 333.407 2847.755 333.407 2827.943 333.407 2825.114 333.407 2791.153 333.407 2748.704 333.407 2573.243 333.407 2430.325 333.407 2377.972 333.407 2317.126 333.407 2304.391 333.407 2283.165 333.407 2281.75 333.407 2256.279 333.407 2218.075 333.407 2209.584 333.407 2202.509 333.407 2196.849 333.407 2195.434 333.407 2182.7 333.407 2134.588 333.407 2123.27 333.407 2110.84 333.407 2110.84 323.304z" opacity=".2" transform="translate(-1902 -22.52) translate(0 157.54)"/>
                                        <path fill="#ADE1E7" d="M1569.898 331.308H2498.598V416.61H1569.898z" transform="translate(-1902 -22.52) translate(0 157.54)"/>
                                        <path fill="#ADE1E7" d="M2135.305 42.648l-.882 63.501-10.557 22.028v41.387h-7.239v5.383h7.239v12.15h-7.239v5.379h7.239v12.143h-7.239v5.386h7.239v12.147h-7.239v5.375h7.239v83.365H2110.3v-13.844h-31.544V223.16h-3.304l-14.506-9.384-13.95 9.384h-3.305v62.03h-18.29v-98.011l-31.077-2.9-16.106 2.398V302.87h-10.06v-16.879h-19.983l-1.497-11.458h-5.894v-96.9h-5.556v-2.702h-22.438v2.701h-5.556v67.996h-8.686v-41.846h-38.177v78.516h-7.406v14.244h-20.552V180.874l-28.378-2.358-10.528 2.358v63.267h-8.462v40.32h-9.558v-9.928h-26.446v31.33h-16.853v-24.437h-10.483v-6.893c0-6.764-11.194-26.535-11.194-26.535s-11.172 19.771-11.172 26.535v6.893h-11.888v24.437h-10.379V215.01h-6.943v-6.079h-39.803v6.08h-6.673v44.998h-20.378v42.861h-19.588v-66.995h-17.806l.302-28.007h-13.165c-12.616-13.656-25.027-5.83-31.29 0h-14.467l.015 75.827-20.009 1.619v-52.747l-20.986-2.106-.107-62.644-10.66-2.195-25.998 1.19-.38 98.003h-19.973V206.86l-23.64-1.595-10.134 2.872v36.004h-17.774v43.372h-10.635v-31.058h-30.114v34.362h-12.588v-27.52h-10.628v-34.206h-5.211v-2.28h-23.761v2.28h-5.001v53.814h-12.087v27.823h-9.312v-33.136h-21.687v11.299h-1.473v-26.536h-2.71v-9.897h-1.547v-51.723l-13.517-2.164-27.375 2.164v51.723h-1.547v9.897h-2.262v26.536h-5.723v16.14h-8.306v-31.245h-21.676v-52.451h-14.982v-6.154h-15.445v6.154h-4.168v66.135h-31.54v-19.611h-18.173l-.164-63.341-32.642.124v4.561h-3.063v-4.56h-10.276v4.56h-3.198v49.19h-16.532v-16.96h-6.232c-7.51-9.108-14.712-4.243-18.557 0h-6.204v64.734h-9.194l-.075-19.452c-28.605-32.79-53.59-14.937-64.727 0h-27.517v-36.031h-10.443V174.93h-7.26l-2.002-4.277h-29.15l-2.027 4.277h-7.022v96.633H753.24V196.41h-7.235l-2.027-4.278-14.477-24.3-14.669 24.3-2.003 4.278h-7.053v54.273h-12.98v39.724H670.98V182.77h-30.02v-20.993l-43.588 4.048v73.756h-23.736v30.1h-10.041v-76.029h-7.83v-4.985h-5.41v-12.15h-9.54v-10.747h-18.52v9.162h-15.978v-3.767h-13.474v11.89h-6.403v10.282h-11.254v10.598c0 .619-6.83 0-6.83 0v15.634l-3.507 4.203h-1.938v3.717h-4.529v20.3l-11.617.086v-12.669h-24.322v-51.07h-53.544v6.087h1.992v16.156h-16.02v7.655h-6.997v7.652h-6.993v7.655h-6.997v7.652h-6.993v7.655h-6.996v48.424h-3.653v11.89H305.68v20.066l-29.253.627c-.142-7.142-.836-45.069.349-67.09 2.02-.7 3.493-2.735 3.493-5.172 0-1.498-.559-2.864-1.473-3.849 1.782-1.055 3.557-1.965 5.343-2.666 2.33-.926 4.688-1.413 6.954-1.198 2.265.198 4.456 1.113 6.527 2.568 2.098 1.425 4.023 3.363 6.096 5.36-.807-2.896-2.265-5.562-4.34-7.769-2.002-2.152-4.794-3.736-7.775-4.036 2.423-.408 4.873-.381 7.32.257 2.775.685 5.475 2.11 8.231 3.795-1.743-2.896-4.268-5.274-7.345-6.714-3.062-1.455-6.63-1.77-9.899-1.012-1.266.284-2.476.697-3.635 1.226.235-.202.455-.428.69-.642 2.24-1.942 4.55-3.752 7.036-5.22 2.475-1.482 5.132-2.548 8.18-2.976-2.891-1.226-6.295-.942-9.276.14-3.02 1.086-5.759 2.88-8.181 5.005-2.148 1.88-4.048 4.032-5.755 6.36.039-.67.064-1.332.074-1.997.538-1.456 1.11-2.896 1.75-4.278 1.16-2.549 2.526-4.942 4.194-7.11 1.65-2.2 3.657-4.106 5.994-5.932-2.87.288-5.645 1.686-7.964 3.706-1.743 1.556-3.216 3.463-4.4 5.557-.303-2.19-.769-4.359-1.473-6.453-.978-2.88-2.383-5.771-4.635-7.686 1 2.857 1.508 5.632 1.914 8.457.089.654.153 1.296.231 1.95-.74-1.541-1.665-2.977-2.8-4.262-2.212-2.51-5.377-4.102-8.4-3.907 2.71 1.46 4.77 3.452 6.224 5.888 1.487 2.41 2.49 5.173 3.283 8.053.107.416.196.829.302 1.226-.558-.942-1.163-1.865-1.839-2.752-2.056-2.662-4.634-4.916-7.516-6.43-2.877-1.51-6.004-2.335-9.116-2.218 2.789 1.495 5.364 3.02 7.687 4.873 1.743 1.381 3.343 2.923 4.805 4.6-.377-.296-.743-.6-1.145-.868-2.817-1.922-6.058-3.148-9.344-3.49-3.27-.328-6.563.128-9.519 1.455 3.176.3 6.19.696 9.028 1.58 2.472.743 4.809 1.825 6.993 3.195-.402-.101-.818-.19-1.238-.245-3.671-.525-7.253.728-10.13 2.639-2.907 1.938-5.318 4.487-7.193 7.437 2.867-1.736 5.599-3.49 8.437-4.686 2.818-1.23 5.71-1.899 8.43-1.498 1.615.218 3.166.813 4.635 1.712-1.102-.389-2.248-.67-3.407-.798-3.64-.428-7.285.456-10.412 2.094-3.137 1.666-5.872 3.99-8.078 6.811 3.092-1.506 6.058-2.981 9.096-3.93 3.009-.974 6.057-1.413 9.013-1.083 1.448.168 2.878.526 4.261 1.051-1.213 1.055-2.073 2.41-2.49 3.962 1.551-.61 2.867-1.226 4.077-1.525 1.081-.269 1.981-.269 2.881-.07.662.455 1.33.937 1.978 1.467-1.669.872-2.825 2.724-2.825 4.876 0 2.18 1.174 4.06 2.864 4.916-1.185 22.176-.491 60.146-.352 67.4l-22.665.358c.081-4.008.572-29.859-.235-44.823 1.12-.572 1.903-1.81 1.903-3.25 0-1.428-.769-2.654-1.864-3.238.434-.342.86-.654 1.305-.953.584-.144 1.185-.129 1.9.042.796.199 1.668.596 2.7.997-.289-1.028-.85-1.911-1.658-2.608.928-.354 1.864-.584 2.828-.7 1.953-.21 3.962.074 5.95.716 2.01.626 3.963 1.611 6.008 2.592-1.462-1.857-3.258-3.394-5.342-4.488-2.056-1.082-4.468-1.67-6.862-1.385-.782.09-1.536.272-2.266.517.975-.587 2.003-.984 3.06-1.128 1.81-.257 3.71.183 5.573.996 1.875.786 3.675 1.954 5.578 3.094-1.242-1.95-2.828-3.635-4.756-4.92-1.903-1.252-4.272-2.077-6.694-1.735-.274.043-.548.086-.808.156 1.448-.9 2.985-1.612 4.614-2.11 1.87-.568 3.866-.84 5.961-1.043-1.953-.868-4.13-1.183-6.289-.95-2.166.226-4.31 1.02-6.174 2.293-.264.183-.498.385-.758.584.978-1.11 2.034-2.14 3.18-3.048 1.536-1.23 3.244-2.226 5.08-3.226-2.057-.07-4.134.486-6.033 1.471-1.886 1.016-3.597 2.48-4.962 4.262-.442.572-.833 1.183-1.21 1.81.064-.273.128-.541.206-.814.523-1.891 1.174-3.717 2.163-5.328.964-1.6 2.32-2.923 4.101-3.876-1.988-.129-4.072.926-5.534 2.58-.754.84-1.366 1.79-1.864 2.806l.16-1.284c.27-1.868.612-3.694 1.277-5.585-1.498 1.265-2.426 3.18-3.077 5.071-.47 1.397-.765 2.822-.978 4.262-.768-1.366-1.743-2.639-2.903-3.663-1.522-1.338-3.361-2.265-5.25-2.448 1.537 1.21 2.853 2.464 3.96 3.92 1.095 1.424 1.995 3.02 2.76 4.697.42.915.796 1.857 1.145 2.826.018.443.042.883.067 1.311-1.13-1.525-2.383-2.95-3.816-4.203-1.59-1.401-3.397-2.58-5.393-3.297-1.981-.708-4.218-.906-6.136-.1 2.02.287 3.764 1 5.407 1.969 1.64.969 3.166 2.164 4.65 3.452.16.14.298.284.454.428-.768-.347-1.561-.63-2.393-.814-2.163-.498-4.521-.303-6.552.67-2.017.942-3.703 2.526-4.849 4.433 1.825-1.113 3.607-2.051 5.446-2.507 1.6-.416 3.23-.443 4.834-.175-1.981.214-3.817 1.257-5.143 2.662-1.37 1.475-2.323 3.227-2.87 5.138 1.369-1.316 2.646-2.596 4.026-3.534 1.38-.958 2.827-1.569 4.325-1.701 1.483-.14 3.045.187 4.6.802 1.17.451 2.329 1.066 3.517 1.751-.601.654-.967 1.553-.967 2.553 0 1.611.967 2.946 2.304 3.406.797 14.952.303 40.99.225 44.71l-110.377 3.32H0v2.28h2667.744v-45.652h-4.247v-9.348h-23.469v16.533l-7.117-.53v-123.58l-37.285-1.413-13.41 1.413v128.62h-10.336V276.71h-7.75v-8.773h-5.756v-7.6h-6.93v-7.251h-15.838v-46.94h-2.917v-3.963h-42.165v3.962h-3.336v76.948h-15.26V121.798h-4.272l-1.067-3.222h-45.156l-1.074 3.222h-4.809v125.99h-11.283v-35.066h-40.606V252.7l-9.615 3.144-.356-4.261-7.131-6.231-6.837 6.616-.107 5.083-35.21 5.939v23.067h-17.536v-9.348h-28.972v26.161h-8.089v-79.71h-5v-3.192h-35.581v3.192h-4.17v62.03h-12.36V258.91h-15.839v-6.523h-14.029v42.22h-16.092v-67.081h7.235v-5.375h-7.235v-12.147h7.235v-5.386h-7.235v-12.143h7.235v-5.379h-7.235v-12.15h7.235v-5.383h-7.235v-8.679l-10.084-20.674-1.348-97.563z" transform="translate(-1902 -22.52) translate(0 157.54)"/>
                                    </g>
                                </g>
                                <g opacity=".7">
                                    <g>
                                        <path fill="#ADE1E7" d="M1829.816 82.024l-.882 63.347-10.559 21.975v41.287h-7.239v5.37h7.24v12.12h-7.24v5.366h7.24v12.114h-7.24v5.373h7.24v12.117h-7.24v5.362h7.24v83.164h-13.568v-13.81h-31.547v-73.71h-3.305l-14.507-9.36-13.952 9.36h-3.305v61.88H1719.9v-97.774l-31.08-2.892-16.108 2.391v115.913h-10.06v-16.838h-19.986l-1.497-11.43h-5.895V216.68h-5.556v-2.694h-22.44v2.694h-5.557v67.832h-8.687v-41.745h-38.181v78.326h-7.407v14.21h-20.554V219.915l-28.38-2.352-10.53 2.352v63.115h-8.463v40.223h-9.559v-9.905h-26.449v31.255h-16.855v-24.379h-10.483v-6.876c0-6.747-11.195-26.47-11.195-26.47s-11.174 19.723-11.174 26.47v6.876h-11.889v24.379h-10.38v-90.634h-6.944v-6.064h-39.807v6.064h-6.674v44.89h-20.38v42.758h-19.59v-66.834h-17.808l.302-27.938h-13.166c-12.618-13.624-25.03-5.816-31.294 0h-14.468l.014 75.643-20.01 1.615v-52.62l-20.988-2.1-.107-62.493-10.661-2.19-26.001 1.188-.38 97.766h-19.975v-57.815l-23.643-1.592-10.134 2.865v35.918h-17.777v43.267h-10.636v-30.983h-30.117v34.279h-12.59V302.14h-10.629v-34.124h-5.211v-2.275h-23.763v2.275h-5.002V321.7h-12.088v27.756h-9.313V316.4h-21.69v11.271h-1.472V301.2h-2.711v-9.873h-1.547v-51.6l-13.518-2.158-27.378 2.159v51.599h-1.547v9.873h-2.263v26.471h-5.724v16.1h-8.306v-31.168H824.86v-52.325h-14.983v-6.138H794.43v6.138h-4.17v65.976h-31.543V306.69h-18.174l-.164-63.188-32.646.124v4.55h-3.063v-4.55h-10.277v4.55h-3.198v49.072H674.66v-16.92h-6.232c-7.51-9.086-14.713-4.232-18.559 0h-6.204v64.578h-9.196l-.074-19.405c-28.609-32.71-53.596-14.901-64.734 0h-27.52v-35.945h-10.444v-75.57h-7.26l-2.003-4.266h-29.153l-2.028 4.267h-7.022v96.399h-36.627v-74.972h-7.235l-2.028-4.266-14.478-24.243-14.671 24.243-2.003 4.266h-7.054v54.142h-12.98v39.63h-21.818v-107.38h-30.024v-20.942l-43.592 4.038v73.577h-23.739v30.028h-10.042v-75.845h-7.83v-4.974h-5.41v-12.121h-9.541v-10.72h-18.524v9.14h-15.98v-3.759h-13.475v11.862h-6.403v10.257h-11.255v10.572c0 .618-6.83 0-6.83 0v15.596l-3.508 4.194h-1.939v3.707h-4.528v20.252l-11.619.085v-12.638h-24.325V223.17H63.225v6.072h1.992v16.117H49.195v7.637h-6.998v7.633h-6.993v7.636h-6.998v7.634h-6.993v7.636h-6.998v48.307h-3.653v11.861H0v20.018l2362.31 6.667v-45.542h-4.247v-9.326h-23.471v16.493l-7.119-.528V208.202l-37.288-1.41-13.411 1.41v128.31h-10.338v-20.993h-7.751v-8.752h-5.756v-7.582h-6.93v-7.233h-15.84v-46.827h-2.918v-3.953h-42.169v3.953h-3.337v76.761h-15.26V160.983h-4.273l-1.067-3.215h-45.161l-1.074 3.215h-4.81v125.685h-11.284v-34.982h-40.61v39.881l-9.616 3.137-.356-4.25-7.133-6.217-6.837 6.6-.107 5.071-35.214 5.925v23.012h-17.538v-9.326h-28.975v26.098h-8.089v-79.518h-5.002v-3.184h-35.584v3.184h-4.17v61.88h-12.361v-26.215h-15.841v-6.507h-14.03v42.117h-16.094v-66.919h7.236v-5.362h-7.236v-12.117h7.236v-5.373h-7.236v-12.114h7.236v-5.365h-7.236v-12.122h7.236v-5.37h-7.236v-8.657l-10.085-20.624-1.348-97.327z" transform="translate(-1902 -22.52) translate(2002.241 228.61)"/>
                                        <path fill="#65C8D0" d="M274.857 331.448c-.162-8.055-.952-50.832.397-75.67 2.3-.79 3.977-3.085 3.977-5.833 0-1.69-.636-3.23-1.677-4.341 2.03-1.19 4.05-2.217 6.084-3.007 2.653-1.045 5.338-1.594 7.918-1.352 2.58.224 5.075 1.255 7.432 2.897 2.39 1.606 4.58 3.793 6.942 6.044-.92-3.265-2.58-6.272-4.942-8.761-2.28-2.428-5.46-4.214-8.853-4.552 2.758-.461 5.549-.43 8.335.29 3.16.772 6.233 2.378 9.372 4.28-1.985-3.267-4.86-5.949-8.363-7.573-3.488-1.642-7.55-1.997-11.272-1.141-1.442.32-2.819.785-4.14 1.382.268-.228.52-.482.787-.724 2.551-2.19 5.18-4.232 8.01-5.886 2.82-1.673 5.845-2.876 9.316-3.359-3.293-1.382-7.169-1.062-10.563.158-3.438 1.225-6.557 3.249-9.315 5.646-2.446 2.12-4.61 4.547-6.553 7.172.044-.755.073-1.5.085-2.252.611-1.641 1.264-3.265 1.993-4.824 1.32-2.875 2.875-5.575 4.775-8.02 1.879-2.48 4.163-4.63 6.824-6.69-3.268.325-6.427 1.901-9.068 4.18-1.985 1.755-3.661 3.906-5.01 6.268-.344-2.472-.875-4.917-1.677-7.278-1.114-3.249-2.713-6.51-5.277-8.67 1.138 3.222 1.717 6.352 2.179 9.539.101.737.174 1.462.263 2.2-.842-1.74-1.895-3.359-3.187-4.808-2.52-2.831-6.124-4.626-9.567-4.407 3.086 1.646 5.431 3.894 7.088 6.642 1.693 2.717 2.835 5.834 3.738 9.082.122.47.223.935.344 1.383-.635-1.063-1.324-2.103-2.094-3.104-2.34-3.002-5.277-5.544-8.557-7.252-3.277-1.703-6.837-2.633-10.38-2.502 3.174 1.686 6.107 3.407 8.751 5.496 1.985 1.559 3.808 3.297 5.472 5.189-.43-.334-.846-.676-1.304-.98-3.208-2.168-6.897-3.55-10.64-3.937-3.722-.368-7.472.145-10.838 1.642 3.617.338 7.047.786 10.28 1.782 2.814.839 5.475 2.06 7.962 3.604-.458-.114-.932-.215-1.41-.276-4.18-.593-8.258.82-11.534 2.976-3.31 2.186-6.055 5.061-8.19 8.389 3.265-1.958 6.375-3.938 9.607-5.286 3.208-1.387 6.5-2.142 9.6-1.69 1.838.246 3.604.918 5.276 1.932-1.255-.44-2.56-.755-3.88-.9-4.143-.483-8.294.514-11.854 2.362-3.573 1.878-6.687 4.5-9.198 7.682 3.52-1.7 6.897-3.363 10.356-4.434 3.426-1.097 6.897-1.593 10.263-1.22 1.648.188 3.277.592 4.852 1.185-1.381 1.19-2.361 2.717-2.835 4.469 1.766-.69 3.264-1.383 4.641-1.721 1.232-.303 2.256-.303 3.281-.08.753.514 1.515 1.059 2.252 1.656-1.9.983-3.216 3.073-3.216 5.5 0 2.458 1.337 4.578 3.26 5.544-1.348 25.013-.558 67.838-.4 76.02l4.082-.06z" transform="translate(-1902 -22.52) translate(2002.241 228.61)"/>
                                        <path fill="#65C8D0" d="M220.192 331.462c-.126-6.247-.74-39.421.309-58.682 1.79-.613 3.093-2.393 3.093-4.525 0-1.31-.494-2.505-1.304-3.366 1.578-.923 3.15-1.72 4.732-2.332 2.063-.81 4.152-1.236 6.158-1.049 2.007.174 3.947.974 5.78 2.247 1.86 1.246 3.563 2.941 5.4 4.688-.715-2.533-2.007-4.865-3.843-6.795-1.774-1.883-4.247-3.268-6.886-3.53 2.145-.358 4.315-.334 6.483.224 2.457.6 4.848 1.845 7.289 3.32-1.544-2.533-3.78-4.613-6.505-5.873-2.712-1.273-5.872-1.549-8.767-.885-1.121.249-2.192.61-3.22 1.072.209-.177.404-.374.612-.561 1.984-1.7 4.029-3.282 6.23-4.565 2.193-1.297 4.546-2.23 7.246-2.605-2.561-1.072-5.576-.824-8.215.123-2.675.95-5.1 2.519-7.246 4.378-1.902 1.644-3.584 3.527-5.097 5.562.035-.585.057-1.164.067-1.746.475-1.273.982-2.533 1.55-3.741 1.026-2.23 2.236-4.324 3.713-6.22 1.462-1.923 3.239-3.591 5.308-5.188-2.542.252-4.999 1.474-7.053 3.24-1.543 1.363-2.847 3.03-3.896 4.862-.268-1.916-.68-3.813-1.305-5.644-.866-2.52-2.11-5.049-4.104-6.724.885 2.5 1.336 4.926 1.695 7.398.078.572.135 1.134.204 1.705-.655-1.348-1.474-2.604-2.479-3.727-1.96-2.196-4.763-3.588-7.44-3.418 2.4 1.276 4.224 3.02 5.512 5.15 1.317 2.108 2.205 4.525 2.908 7.044.094.364.173.725.268 1.072-.495-.824-1.03-1.63-1.629-2.407-1.82-2.328-4.104-4.3-6.656-5.623-2.549-1.321-5.317-2.043-8.074-1.94 2.47 1.306 4.75 2.64 6.808 4.261 1.543 1.209 2.96 2.557 4.255 4.024-.334-.259-.658-.524-1.014-.759-2.495-1.682-5.365-2.754-8.275-3.054-2.895-.286-5.812.113-8.43 1.274 2.813.262 5.481.609 7.995 1.382 2.19.65 4.259 1.596 6.193 2.795-.356-.089-.724-.167-1.096-.215-3.251-.46-6.423.637-8.972 2.308-2.573 1.696-4.709 3.925-6.37 6.506 2.54-1.519 4.96-3.054 7.473-4.099 2.495-1.076 5.056-1.661 7.466-1.31 1.43.19 2.803.71 4.104 1.497-.976-.34-1.99-.585-3.018-.698-3.222-.374-6.451.399-9.22 1.832-2.778 1.457-5.2 3.49-7.154 5.957 2.738-1.317 5.365-2.607 8.055-3.438 2.665-.851 5.365-1.236 7.982-.946 1.282.146 2.549.46 3.774.919-1.074.922-1.836 2.107-2.205 3.465 1.374-.534 2.54-1.072 3.61-1.334.958-.235 1.755-.235 2.552-.061.586.398 1.178.82 1.751 1.283-1.477.763-2.501 2.383-2.501 4.265 0 1.907 1.04 3.551 2.536 4.3-1.05 19.397-.435 52.61-.312 58.955l3.175-.048z" transform="translate(-1902 -22.52) translate(2002.241 228.61) matrix(-1 0 0 1 439.178 0)"/>
                                    </g>
                                </g>
                            </g>
                        </g>
                    </g>
                    <g>
                        <g transform="translate(-22 -24) translate(24 24) translate(-144 -373) translate(185 402) translate(33.423 101.163)">
                            <mask id="akf00bj3xh" fill="#fff">
                                <use xlink:href="#ok8nsnh3xf"/>
                            </mask>
                            <path fill="url(#bm3ced1d3g)" d="M3.368.293L.988 6.068s-1.5.635-.667 2.026c.831 1.39 3.562 2.62 4.253 2.613 1.444-.014-1.669-3.475-1.669-3.475L5.82.075 3.368.293" mask="url(#akf00bj3xh)"/>
                        </g>
                        <path fill="#222B50" d="M36.746 108.553s3.801 4.572 3.292 5.777c-.814 1.925-7.227-3.89-7.382-5.418-.15-1.467 1.754-1.86 1.754-1.86s.2 1.456 2.336 1.501" transform="translate(-22 -24) translate(24 24) translate(-144 -373) translate(185 402)"/>
                        <path fill="url(#bm3ced1d3g)" d="M20.273 120.153l-2.38 5.775s-1.498.635-.666 2.026c.831 1.391 3.561 2.62 4.253 2.614 1.444-.015-1.669-3.476-1.669-3.476l2.915-7.156-2.453.217" transform="translate(-22 -24) translate(24 24) translate(-144 -373) translate(185 402)"/>
                        <path fill="#222B50" d="M20.229 127.25s3.8 4.573 3.292 5.777c-.815 1.926-7.227-3.89-7.383-5.418-.15-1.467 1.755-1.86 1.755-1.86s.2 1.457 2.336 1.502" transform="translate(-22 -24) translate(24 24) translate(-144 -373) translate(185 402)"/>
                        <g transform="translate(-22 -24) translate(24 24) translate(-144 -373) translate(185 402) translate(17.489 64.352)">
                            <mask id="p30jkhuk8k" fill="#fff">
                                <use xlink:href="#8k1fwejo7i"/>
                            </mask>
                            <path fill="url(#iyiv1ws9cj)" d="M20.664 25.56c.75-2.786 1.537-5.624 2.344-8.47C16.574 15.073.175 9.681.175 9.681c.595-2.314 1.644-4.34 2.122-5.224C3.83 1.625 13.183-.388 16.54.07c2.92.398 6.523 2.675 9.166 3.97 4.4 2.156 10.691 7.066 8.13 12.345-4.403 8.663-9.279 18.66-13.82 27.25-.325-.04-3.078-1.337-3.368-1.477.828-3.362 2.206-9.89 4.015-16.598" mask="url(#p30jkhuk8k)"/>
                        </g>
                        <g transform="translate(-22 -24) translate(24 24) translate(-144 -373) translate(185 402) translate(9.327 65.715)">
                            <mask id="u8vrlkylkn" fill="#fff">
                                <use xlink:href="#9mmy6etoxl"/>
                            </mask>
                            <path fill="url(#6eyxzki7am)" d="M13.723 41.989c.92-2.735 1.875-5.52 2.853-8.311C11.498 27.66.154 6.333.154 6.333.886 4.06 3.935 1.481 5.548.603c2.825-1.539 4.59 1.363 7.915 2.025 2.891.576 7.327 10.668 8.993 12.929 3.307 4.492 7.036 12.706 6.284 14.805-.59 1.4-.78 2.532-1.312 3.271-4.92 8.379-10.961 18.623-16.016 26.92-.32-.06-2.456-1.882-2.736-2.04 1.028-3.305 2.836-9.939 5.047-16.524" mask="url(#u8vrlkylkn)"/>
                        </g>
                        <g transform="translate(-22 -24) translate(24 24) translate(-144 -373) translate(185 402) translate(19.432 14.102)">
                            <mask id="2t8yoqaszq" fill="#fff">
                                <use xlink:href="#x0r2ufwtfo"/>
                            </mask>
                            <path fill="url(#j51bq5wjfp)" d="M.082.371l.487 11.596s4.5 3.98 7.097 3.767C10.686 15.486 5.97.123 5.97.123L.082.37" mask="url(#2t8yoqaszq)"/>
                        </g>
                        <g transform="translate(-22 -24) translate(24 24) translate(-144 -373) translate(185 402) translate(18.072 3.585)">
                            <mask id="3rj4iuel0t" fill="#fff">
                                <use xlink:href="#eeytzjylqr"/>
                            </mask>
                            <path fill="url(#fcd7tvf0hs)" d="M4.852.786c-.455.288-6.717 3.526-3.964 11.93.806 4.115 6.415 9.381 9.565-.532C12.318 6.31 9.914-2.413 4.853.786" mask="url(#3rj4iuel0t)"/>
                        </g>
                        <path fill="#222B50" d="M32.56 4.711c.012-.59-.48-1.079-1.066-1.03-1.106.091-2.841-.23-4.66-1.643C22.47-1.35 19.76-.245 17.767 3.375c-.898 1.629-.966 3.576-.76 5.253l-.018.033c.286 2.046 1.001 3.836 1.001 3.836s.902-1.234 1.217-2.121c2.524-6.192 3.907-.099 8.641-.603 4.007-.427 4.677-3.333 4.712-5.062" transform="translate(-22 -24) translate(24 24) translate(-144 -373) translate(185 402)"/>
                        <g transform="translate(-22 -24) translate(24 24) translate(-144 -373) translate(185 402) translate(17.295 10.207)">
                            <mask id="sep3up45tw" fill="#fff">
                                <use xlink:href="#tprunalasu"/>
                            </mask>
                            <path fill="url(#mvgxdg47tv)" d="M1.957 1.166S.057-1.16.027 1.077c-.023 1.775 1.265 1.99 1.265 1.99l.665-1.901" mask="url(#sep3up45tw)"/>
                        </g>
                        <g transform="translate(-22 -24) translate(24 24) translate(-144 -373) translate(185 402) translate(6.996 21.698)">
                            <mask id="qoy7tf975z" fill="#fff">
                                <use xlink:href="#eu3xx9fngx"/>
                            </mask>
                            <path fill="url(#0ij10bgx6y)" d="M1.156 5.356C2.584 2.888 8.383.307 12.007.741c0 0 2.056 2.376 5.713 1.324 2.614-.753 2.818-1.512 2.82-1.789.004-.921 7.032 1.538 8.851 3.041 2.155 1.778 2.744 21.118.641 39.586-.375.737-24.791 8.47-27.739 6.921C-.635 48.286-.29 7.856 1.156 5.356" mask="url(#qoy7tf975z)"/>
                        </g>
                        <g transform="translate(-22 -24) translate(24 24) translate(-144 -373) translate(185 402) translate(8.744 64.157)">
                            <mask id="jmp8hv2qpC" fill="#fff">
                                <use xlink:href="#71b2djpotA"/>
                            </mask>
                            <path fill="url(#sv7dvyi84B)" d="M.26 7.082C.564 6.92 28.316-.083 28.346.014c.342 1.165.211.496.322 1.073C28.293 1.824 1.11 8.884.583 8.013.321 7.58-.082 7.265.26 7.082" mask="url(#jmp8hv2qpC)"/>
                        </g>
                        <g transform="translate(-22 -24) translate(24 24) translate(-144 -373) translate(185 402) translate(21.958 23.256)">
                            <mask id="12v1h0mt1F" fill="#fff">
                                <use xlink:href="#awzq21wldD"/>
                            </mask>
                            <path fill="url(#4et13nrsdE)" d="M2.038 4.191L0.651 1.58 2.971 0.131 5.184 1.652 4.174 4.334 6.504 31.215 4.042 37.125 0.062 31.544 2.038 4.191" mask="url(#12v1h0mt1F)"/>
                        </g>
                        <g transform="translate(-22 -24) translate(24 24) translate(-144 -373) translate(185 402) translate(16.323 21.114)">
                            <mask id="at3qt3smvI" fill="#fff">
                                <use xlink:href="#bjqgjt17yG"/>
                            </mask>
                            <path fill="url(#5fsow3yt6H)" d="M11.123.172s-1.378 3.482-8.018.44c-1.597.207-2.96.642-2.96.642s3.213 3.542 5.356 4.15c.214-.358 3.133-2.737 3.133-2.737l3.264 2.093s1.09-1.851 1.125-3.998c-.134-.215-1.383-.528-1.9-.59" mask="url(#at3qt3smvI)"/>
                        </g>
                        <g transform="translate(-22 -24) translate(24 24) translate(-144 -373) translate(185 402) translate(24.679 66.3)">
                            <mask id="ao2bw7695L" fill="#fff">
                                <use xlink:href="#zfccioe0fJ"/>
                            </mask>
                            <path fill="url(#sks7wdpy4K)" d="M0.499 2.69L3.379 2.046 2.926 0.016 0.047 0.661 0.499 2.69" mask="url(#ao2bw7695L)"/>
                        </g>
                        <g transform="translate(-22 -24) translate(24 24) translate(-144 -373) translate(185 402) translate(26.039 47.018)">
                            <mask id="gbl5bqxb6O" fill="#fff">
                                <use xlink:href="#3sulv1wnsM"/>
                            </mask>
                            <path fill="url(#9qvhk2g9lN)" d="M6.183 2.322c-.303-.033-.61-.067-.925-.104C4.975 2.184-.056-1.96.09 1.334c.136 3.078 3.863 3.854 3.863 3.854s.776.465 2.231.987V2.322" mask="url(#gbl5bqxb6O)"/>
                        </g>
                        <g transform="translate(-22 -24) translate(24 24) translate(-144 -373) translate(185 402) translate(28.954 25.01)">
                            <mask id="gy4xitlhwR" fill="#fff">
                                <use xlink:href="#bx8gpd1weP"/>
                            </mask>
                            <path fill="url(#hbgclbwliQ)" d="M2.114 23.134c.364-.427 1.172.957 7 2.19.091-.125.188-5.33.16-9.799-.322-3.338-.778-10.633-1.771-14.393-.474-1.794.4-.896 1.523-.302 2.905 1.538 8.148 8.163 7.67 23.307.086 1.12-.25 3.043-.633 4.174l.035.007c-.045.093-.094.188-.14.282-.037.091-.072.176-.11.25-.057.12-.127.235-.203.346-.472.847-1.013 1.635-1.401 2.02C11.459 33.966 6.69 32.621 0 27.262c1.112-2.225 1.387-3.275 2.114-4.128" mask="url(#gy4xitlhwR)"/>
                        </g>
                        <g transform="translate(-22 -24) translate(24 24) translate(-144 -373) translate(185 402) translate(20.987 41.175)">
                            <mask id="mhws8tdj7U" fill="#fff">
                                <use xlink:href="#28yfjnlozS"/>
                            </mask>
                            <path fill="url(#ftxxb21i4T)" d="M4.658.97L.216 10.648c-.233.509.128 1.902.59 1.897l5.484-.79c.206-.003.393-.146.488-.377l4.257-10.144c.222-.53-.112-1.189-.58-1.143L5.096.62c-.185.018-.346.148-.44.35" mask="url(#mhws8tdj7U)"/>
                        </g>
                        <g transform="translate(-22 -24) translate(24 24) translate(-144 -373) translate(185 402) translate(.194 29.684)">
                            <mask id="5zlfdl6e0X" fill="#fff">
                                <use xlink:href="#3z7xjerm2V"/>
                            </mask>
                            <path fill="url(#3soyj005iW)" d="M4.545 2.897C2.83 4.72-3.162 25.922 2.55 27.371c12.037 3.052 19.312-1.332 19.312-1.332s3.725-.775 3.861-3.853c.146-3.294-4.885.85-5.169.884-8.497 1.01-13.618.324-13.266-1.515.946-4.975.667-16.411 2.242-20.144.993-2.353-2.327-1.33-4.984 1.486" mask="url(#5zlfdl6e0X)"/>
                        </g>
                        <g transform="translate(-22 -24) translate(24 24) translate(-144 -373) translate(185 402) translate(0 25.01)">
                            <mask id="9qx3xj7bjaa" fill="#fff">
                                <use xlink:href="#ct5urzzkjY"/>
                            </mask>
                            <path fill="url(#yswai0oypZ)" d="M.198 25.86C-.112 9.272 5.718 2.092 8.921.45c1.238-.634 1.788-.163 1.592 1.507C9.15 13.54 8.608 23.328 7.816 26.625c6.632 1 12.611.372 12.83.96.43 1.149.251.826 1.11 3.661-8.88 3.015-18.855 3.656-20.699-.215-.486-1.022-.989-3.72-.859-5.172" mask="url(#9qx3xj7bjaa)"/>
                        </g>
                    </g>
                </g>
            </g>
        </g>
    </g>
</svg>
