<svg xmlns="http://www.w3.org/2000/svg" xmlns:xlink="http://www.w3.org/1999/xlink" width="405" height="560" viewBox="0 0 405 560">
    <defs>
        <path id="7rybmmcnqa" d="M123.716 1.614c58.117-7.331 92.288 11.403 115.36 34.147 23.073 22.745 106.706 141.34 46.588 196.48-60.118 55.137-134.694 55.137-186.628 10.546C47.103 198.197 3.53 203.824.122 132.98-3.286 62.134 65.599 8.946 123.716 1.614z"/>
        <path id="7ok29526rd" d="M0 210.232L192.113 210.232 192.113 0.001 0 0.001z"/>
        <path id="vy94y3qagf" d="M7.795.679l-5.51 13.367s-3.468 1.47-1.543 4.69c1.925 3.22 8.245 6.066 9.847 6.05 3.342-.034-3.864-8.046-3.864-8.046L13.472.174 7.795.679"/>
        <path id="h9j2k0ba3i" d="M47.834 59.166c1.736-6.448 3.558-13.018 5.424-19.605C38.365 34.891.405 22.411.405 22.411 1.78 17.053 4.21 12.36 5.317 10.315 8.866 3.762 30.516-.899 38.288.162c6.761.922 15.1 6.192 21.218 9.19 10.184 4.99 24.75 16.356 18.82 28.576-10.192 20.052-21.478 43.195-31.99 63.079-.752-.093-7.125-3.095-7.796-3.418 1.917-7.783 5.106-22.896 9.294-38.423"/>
        <path id="o7ojgpe8ll" d="M31.766 97.197c2.128-6.331 4.34-12.778 6.603-19.24C26.616 64.028.355 14.662.355 14.662 2.051 9.397 9.11 3.429 12.842 1.394c6.54-3.56 10.625 3.158 18.321 4.69 6.694 1.332 16.963 24.693 20.818 29.927 7.656 10.398 16.288 29.412 14.547 34.273-1.368 3.24-1.804 5.86-3.036 7.57-11.39 19.395-25.375 43.108-37.074 62.314-.742-.137-5.686-4.356-6.334-4.72 2.38-7.651 6.563-23.008 11.682-38.251"/>
        <path id="rcoin0885o" d="M.189.86l1.129 26.842s10.418 9.213 16.427 8.72c6.99-.574-3.927-36.138-3.927-36.138L.188.86"/>
        <path id="5fwkkvellr" d="M11.232 1.82c-1.053.667-15.55 8.162-9.176 27.614 1.866 9.528 14.848 21.717 22.14-1.231C28.514 14.608 22.95-5.586 11.232 1.82"/>
        <path id="wc1v7eyxku" d="M4.53 2.698S.13-2.682.063 2.494C.009 6.602 2.991 7.1 2.991 7.1l1.539-4.4"/>
        <path id="2zm8j8xhgx" d="M2.676 12.4C5.983 6.684 19.406.71 27.794 1.714c0 0 4.76 5.5 13.225 3.065 6.05-1.742 6.522-3.5 6.527-4.141.009-2.133 16.279 3.561 20.489 7.04 4.988 4.115 6.351 48.883 1.484 91.635-.868 1.706-57.387 19.607-64.211 16.02-6.779-3.561-5.978-97.15-2.632-102.935"/>
        <path id="tldtcwsofA" d="M.603 16.393C1.304 16.018 65.547-.192 65.615.033c.791 2.695.49 1.148.746 2.484C65.493 4.223 2.568 20.565 1.35 18.55c-.607-1.006-1.538-1.732-.746-2.156"/>
        <path id="bd0nuvcyrD" d="M4.719 9.7L1.507 3.658 6.878 0.303 12.001 3.823 9.662 10.032 15.055 72.258 9.356 85.938 0.144 73.017 4.719 9.7"/>
        <path id="vf4y0qmr7G" d="M25.748.397s-3.19 8.061-18.56 1.022C3.491 1.895.338 2.903.338 2.903s7.435 8.199 12.396 9.607c.495-.829 7.251-6.336 7.251-6.336l7.557 4.845s2.524-4.286 2.605-9.255c-.31-.497-3.203-1.222-4.4-1.367"/>
        <path id="mu25pylfuJ" d="M1.156 6.228L7.822 4.735 6.774 0.037 0.108 1.53 1.156 6.228"/>
        <path id="16pconlh1M" d="M14.313 5.375c-.702-.075-1.412-.155-2.141-.24C11.515 5.054-.13-4.537.207 3.087c.315 7.126 8.942 8.92 8.942 8.92s1.795 1.078 5.164 2.285V5.375"/>
        <path id="76mc3rwdoP" d="M4.894 53.552c.841-.989 2.712 2.214 16.202 5.068.212-.29.437-12.338.374-22.682-.747-7.727-1.804-24.614-4.103-33.317-1.097-4.153.927-2.074 3.527-.699 6.725 3.559 18.86 18.896 17.754 53.95.198 2.594-.58 7.044-1.466 9.662l.08.017c-.103.216-.215.435-.323.653-.086.21-.166.408-.252.577-.135.28-.297.546-.472.802-1.093 1.962-2.344 3.786-3.243 4.677C26.526 78.624 15.487 75.51 0 63.106c2.573-5.15 3.212-7.581 4.894-9.554"/>
        <path id="qt2o8pycjS" d="M10.782 2.247L.5 24.646c-.54 1.178.297 4.403 1.368 4.391l12.694-1.83c.476-.005.908-.336 1.129-.872l9.855-23.481c.513-1.226-.26-2.752-1.345-2.645L11.8 1.436c-.428.042-.801.343-1.017.811"/>
        <path id="1hq22qnb4V" d="M10.521 6.706c-3.972 4.217-17.84 53.3-4.62 56.652 27.862 7.066 44.703-3.081 44.703-3.081s8.623-1.795 8.938-8.921c.338-7.624-11.308 1.968-11.965 2.046-19.67 2.338-31.523.75-30.709-3.506 2.19-11.517 1.543-37.989 5.191-46.63 2.299-5.448-5.389-3.08-11.538 3.44"/>
        <path id="2pxld77x2Y" d="M.459 59.859C-.261 21.466 13.239 4.846 20.65 1.044c2.865-1.468 4.138-.378 3.684 3.488-3.153 26.811-4.408 49.466-6.243 57.1 15.352 2.315 29.193.86 29.701 2.222.994 2.66.58 1.911 2.568 8.475-20.556 6.979-43.645 8.463-47.914-.499C1.322 69.464.157 63.221.459 59.86"/>
        <linearGradient id="tk9ha482sg" x1="43.364%" x2="70.578%" y1="34.386%" y2="59.792%">
            <stop offset="0%" stop-color="#D6EBF3"/>
            <stop offset="100%" stop-color="#A5CAE1"/>
        </linearGradient>
        <linearGradient id="xcngffa59j" x1="128.025%" x2="14.58%" y1="116.911%" y2="14.053%">
            <stop offset="0%" stop-color="#32527D"/>
            <stop offset="100%" stop-color="#041F36"/>
        </linearGradient>
        <linearGradient id="enaa5k5n7m" x1="83.594%" x2="30.56%" y1="94.872%" y2="30.255%">
            <stop offset="0%" stop-color="#32527D"/>
            <stop offset="100%" stop-color="#041F36"/>
        </linearGradient>
        <linearGradient id="9g1edjj3hp" x1="100.009%" x2=".01%" y1="50%" y2="50%">
            <stop offset="0%" stop-color="#D8B8BA"/>
            <stop offset="100%" stop-color="#D49EA3"/>
        </linearGradient>
        <linearGradient id="h8hd79trds" x1="68.487%" x2="31.231%" y1="56.775%" y2="41.223%">
            <stop offset="0%" stop-color="#F7D1D2"/>
            <stop offset="100%" stop-color="#E6AAAF"/>
        </linearGradient>
        <linearGradient id="gprghtgahv" x1="25.724%" x2="67.67%" y1="40.946%" y2="57.428%">
            <stop offset="0%" stop-color="#F7D1D2"/>
            <stop offset="100%" stop-color="#E6AAAF"/>
        </linearGradient>
        <linearGradient id="ymgsq0pn3y" x1="99.997%" x2="-.002%" y1="50%" y2="50%">
            <stop offset="0%" stop-color="#D6EBF3"/>
            <stop offset="100%" stop-color="#A5CAE1"/>
        </linearGradient>
        <linearGradient id="fb2co6udeB" x1="70.007%" x2="30.668%" y1="55.573%" y2="44.417%">
            <stop offset="0%" stop-color="#32527D"/>
            <stop offset="100%" stop-color="#041F36"/>
        </linearGradient>
        <linearGradient id="zqm6ktvr3E" x1="100%" x2="-.021%" y1="50%" y2="50%">
            <stop offset="0%" stop-color="#669FCA"/>
            <stop offset="100%" stop-color="#3D659A"/>
        </linearGradient>
        <linearGradient id="jgwofbusbH" x1="93.934%" x2="17.286%" y1="39.333%" y2="57.356%">
            <stop offset="0%" stop-color="#D6EBF3"/>
            <stop offset="100%" stop-color="#A5CAE1"/>
        </linearGradient>
        <linearGradient id="2b9eafr7aK" x1="93.002%" x2="6.96%" y1="78.512%" y2="21.493%">
            <stop offset="0%" stop-color="#32527D"/>
            <stop offset="100%" stop-color="#041F36"/>
        </linearGradient>
        <linearGradient id="5sh77x6g0N" x1="8.03%" x2="76.66%" y1="-184.744%" y2="167.301%">
            <stop offset="0%" stop-color="#F7D1D2"/>
            <stop offset="100%" stop-color="#E6AAAF"/>
        </linearGradient>
        <linearGradient id="vexl903p3Q" x1="208.011%" x2=".003%" y1="50%" y2="50%">
            <stop offset="0%" stop-color="#D6EBF3"/>
            <stop offset="100%" stop-color="#A5CAE1"/>
        </linearGradient>
        <linearGradient id="d2qmd0saeT" x1="52.825%" x2="43.938%" y1="18.416%" y2="108.599%">
            <stop offset="0%" stop-color="#32527D"/>
            <stop offset="100%" stop-color="#041F36"/>
        </linearGradient>
        <linearGradient id="54n6h11c6W" x1="57.851%" x2="44.462%" y1="27.095%" y2="102.996%">
            <stop offset="0%" stop-color="#F7D1D2"/>
            <stop offset="100%" stop-color="#E6AAAF"/>
        </linearGradient>
        <linearGradient id="i1urur52pZ" x1="100%" x2="-.003%" y1="50%" y2="50%">
            <stop offset="0%" stop-color="#D6EBF3"/>
            <stop offset="100%" stop-color="#A5CAE1"/>
        </linearGradient>
        <filter id="3wyig1m4jc">
            <feColorMatrix in="SourceGraphic" values="0 0 0 0 0.749020 0 0 0 0 0.905882 0 0 0 0 0.933333 0 0 0 1.000000 0"/>
        </filter>
    </defs>
    <g fill="none" fill-rule="evenodd">
        <g>
            <g>
                <path fill="#E2FCFF" d="M0 0H405V560H0z" transform="translate(-314 -215) translate(314 215)"/>
                <g>
                    <g transform="translate(-314 -215) translate(314 215) translate(49 80)">
                        <mask id="6owbem0b9b" fill="#fff">
                            <use xlink:href="#7rybmmcnqa"/>
                        </mask>
                        <use fill="#F7FEFF" opacity=".7" xlink:href="#7rybmmcnqa"/>
                        <g mask="url(#6owbem0b9b)">
                            <g>
                                <g opacity=".4">
                                    <g>
                                        <g filter="url(#3wyig1m4jc)" transform="translate(-1946.582 -214.716) translate(0 139.763)">
                                            <g transform="translate(2123 142)">
                                                <mask id="56zs53twke" fill="#fff">
                                                    <use xlink:href="#7ok29526rd"/>
                                                </mask>
                                                <path fill="#000" d="M179.822 76.677L180.173 76.677 180.173 71.637 179.822 71.637z" mask="url(#56zs53twke)"/>
                                                <path fill="#000" d="M188.433 71.978c-2.968.58-6.014.58-8.98 0-.137-.028-.251-.171-.251-.307v-.958c0-.136.114-.28.25-.308 2.967-.579 6.013-.579 8.98 0 .144.029.25.172.25.308v.958c0 .136-.106.279-.25.307" mask="url(#56zs53twke)"/>
                                                <path fill="#000" d="M184.166 68.079L181.492 70.76 181.263 70.531 183.944 67.85zM179.93 123.867L180.28 123.867 180.28 118.827 179.93 118.827z" mask="url(#56zs53twke)"/>
                                                <path fill="#000" d="M188.53 119.169c-2.96.58-6.013.58-8.973 0-.143-.029-.257-.164-.257-.307v-.959c0-.135.114-.278.257-.307 2.96-.58 6.013-.58 8.973 0 .143.029.258.172.258.307v.959c0 .143-.115.278-.258.307" mask="url(#56zs53twke)"/>
                                                <path fill="#000" d="M184.271 115.273L181.59 117.947 181.368 117.718 184.042 115.044zM96.006 17.767c-40.82 0-74.031 33.205-74.031 74.024 0 40.82 33.212 74.031 74.03 74.031 40.82 0 74.032-33.212 74.032-74.031 0-40.82-33.212-74.024-74.031-74.024m0 149.12c-41.406 0-75.097-33.69-75.097-75.096 0-41.406 33.691-75.096 75.097-75.096 41.406 0 75.096 33.69 75.096 75.096 0 41.406-33.69 75.096-75.096 75.096" mask="url(#56zs53twke)"/>
                                                <path fill="#000" d="M96.006 53.37c-21.186 0-38.417 17.24-38.417 38.425 0 21.178 17.231 38.417 38.417 38.417 21.185 0 38.417-17.24 38.417-38.417 0-21.186-17.232-38.425-38.417-38.425m0 77.907c-21.779 0-39.49-17.718-39.49-39.482 0-21.78 17.711-39.49 39.49-39.49 21.772 0 39.482 17.71 39.482 39.49 0 21.764-17.71 39.482-39.482 39.482" mask="url(#56zs53twke)"/>
                                                <path fill="#000" d="M96.006 1.285C46.106 1.285 5.5 41.883 5.5 91.79c0 49.914 40.605 90.504 90.505 90.504 49.907 0 90.505-40.59 90.505-90.504 0-49.907-40.598-90.505-90.505-90.505m0 182.296c-50.615 0-91.792-41.177-91.792-91.791 0-50.615 41.177-91.792 91.792-91.792s91.792 41.177 91.792 91.792c0 50.614-41.177 91.791-91.792 91.791" mask="url(#56zs53twke)"/>
                                                <path fill="#000" d="M101.536 91.791c0 3.053-2.48 5.527-5.527 5.527-3.06 0-5.534-2.474-5.534-5.527s2.474-5.527 5.534-5.527c3.046 0 5.527 2.474 5.527 5.527" mask="url(#56zs53twke)"/>
                                                <path fill="#000" d="M96.006 86.795c-2.753 0-4.99 2.238-4.99 4.998 0 2.753 2.237 4.99 4.99 4.99s4.99-2.237 4.99-4.99c0-2.76-2.237-4.998-4.99-4.998m0 11.061c-3.346 0-6.07-2.717-6.07-6.063 0-3.346 2.724-6.063 6.07-6.063s6.07 2.717 6.07 6.063c0 3.346-2.724 6.063-6.07 6.063M96.006 182.94L96.006.636" mask="url(#56zs53twke)"/>
                                                <path fill="#000" d="M95.789 182.941L96.218 182.941 96.218.644 95.789.644zM4.858 91.791L187.154 91.791" mask="url(#56zs53twke)"/>
                                                <path fill="#000" d="M4.855 92.007L187.151 92.007 187.151 91.578 4.855 91.578zM31.552 156.246L160.459 27.339" mask="url(#56zs53twke)"/>
                                                <path fill="#000" d="M31.705 156.393L31.398 156.092 160.305 27.185 160.605 27.485zM31.552 27.337L160.459 156.244" mask="url(#56zs53twke)"/>
                                                <path fill="#000" d="M160.307 156.393L31.4 27.485 31.707 27.185 160.608 156.092zM174.943 137.366L17.071 46.218" mask="url(#56zs53twke)"/>
                                                <path fill="#000" d="M174.838 137.547L16.958 46.399 17.173 46.027 175.052 137.176zM50.432 170.728L141.58 12.849" mask="url(#56zs53twke)"/>
                                                <path fill="#000" d="M50.613 170.839L50.242 170.625 141.39 12.746 141.762 12.96zM119.599 179.833L72.409 3.749" mask="url(#56zs53twke)"/>
                                                <path fill="#000" d="M119.39 179.888L72.2 3.798 72.622 3.691 119.805 179.781zM7.958 115.385L184.048 68.202" mask="url(#56zs53twke)"/>
                                                <path fill="#000" d="M8.014 115.588L7.899 115.18 183.997 67.99 184.104 68.405zM184.047 115.385L7.957 68.202" mask="url(#56zs53twke)"/>
                                                <path fill="#000" d="M183.999 115.588L7.901 68.405 8.016 67.99 184.106 115.18zM72.412 179.833L119.602 3.749" mask="url(#56zs53twke)"/>
                                                <path fill="#000" d="M72.622 179.888L72.2 179.781 119.39 3.691 119.805 3.798zM141.581 170.728L50.433 12.849" mask="url(#56zs53twke)"/>
                                                <path fill="#000" d="M141.392 170.839L50.244 12.96 50.616 12.746 141.764 170.625zM17.07 137.366L174.942 46.218" mask="url(#56zs53twke)"/>
                                                <path fill="#000" d="M17.174 137.547L16.96 137.176 174.839 46.027 175.053 46.399zM107.904 182.158L84.109 1.42" mask="url(#56zs53twke)"/>
                                                <path fill="#000" d="M107.688 182.193L83.892 1.448 84.314 1.391 108.117 182.128zM5.633 103.689L186.37 79.894" mask="url(#56zs53twke)"/>
                                                <path fill="#000" d="M5.661 103.902L5.603 103.473 186.348 79.678 186.406 80.107zM40.517 164.101L151.492 19.478" mask="url(#56zs53twke)"/>
                                                <path fill="#000" d="M40.684 164.234L40.348 163.977 151.323 19.346 151.667 19.604zM23.689 36.302L168.32 147.277" mask="url(#56zs53twke)"/>
                                                <path fill="#000" d="M168.19 147.455L23.56 36.473 23.825 36.137 168.448 147.105zM180.214 126.676L11.789 56.913" mask="url(#56zs53twke)"/>
                                                <path fill="#000" d="M180.131 126.871L11.712 57.108 11.877 56.708 180.295 126.478zM61.122 175.999L130.884 7.581" mask="url(#56zs53twke)"/>
                                                <path fill="#000" d="M61.324 176.083L60.924 175.919 130.693 7.493 131.087 7.658zM130.884 175.999L61.121 7.581" mask="url(#56zs53twke)"/>
                                                <path fill="#000" d="M130.695 176.083L60.925 7.658 61.326 7.493 131.088 175.919zM11.791 126.676L180.216 56.913" mask="url(#56zs53twke)"/>
                                                <path fill="#000" d="M11.875 126.871L11.717 126.478 180.129 56.708 180.3 57.108zM186.373 103.689L5.635 79.894" mask="url(#56zs53twke)"/>
                                                <path fill="#000" d="M186.345 103.902L5.607 80.107 5.657 79.678 186.409 103.473zM84.108 182.158L107.904 1.42" mask="url(#56zs53twke)"/>
                                                <path fill="#000" d="M84.318 182.193L83.889 182.128 107.691 1.391 108.113 1.448zM151.496 164.101L40.52 19.478" mask="url(#56zs53twke)"/>
                                                <path fill="#000" d="M151.321 164.234L40.346 19.604 40.682 19.346 151.672 163.977zM23.689 147.281L168.32 36.306" mask="url(#56zs53twke)"/>
                                                <path fill="#000" d="M23.822 147.455L23.564 147.105 168.187 36.137 168.452 36.473zM91.887 191.466c0 1.859 1.508 3.367 3.367 3.367h1.502c1.852 0 3.36-1.508 3.36-3.367h-8.23z" mask="url(#56zs53twke)"/>
                                                <path fill="#000" d="M91.885 191.592L92.235 191.592 92.235 186.551 91.885 186.551zM99.771 191.592L100.121 191.592 100.121 186.551 99.771 186.551zM95.817 191.592L96.168 191.592 96.168 186.551 95.817 186.551z" mask="url(#56zs53twke)"/>
                                                <path fill="#000" d="M100.489 186.892c-2.96.579-6.013.579-8.973 0-.136-.029-.258-.165-.258-.308v-.958c0-.136.122-.279.258-.307 2.96-.58 6.013-.58 8.973 0 .143.028.257.171.257.307v.958c0 .143-.107.28-.257.308" mask="url(#56zs53twke)"/>
                                                <path fill="#000" d="M96.23 182.996L93.548 185.67 93.327 185.448 96.001 182.767z" mask="url(#56zs53twke)"/>
                                                <path fill="#000" d="M96.006 182.773L98.68 185.454 98.458 185.683 95.777 183.001zM68.321 188.393c0 1.86 1.502 3.368 3.36 3.368h1.502c1.852 0 3.36-1.509 3.36-3.368h-8.222z" mask="url(#56zs53twke)"/>
                                                <path fill="#000" d="M68.311 188.518L68.661 188.518 68.661 183.477 68.311 183.477zM76.198 188.518L76.555 188.518 76.555 183.477 76.198 183.477zM72.244 188.518L72.594 188.518 72.594 183.477 72.244 183.477z" mask="url(#56zs53twke)"/>
                                                <path fill="#000" d="M76.923 183.82c-2.967.579-6.013.579-8.98 0-.136-.03-.25-.165-.25-.308v-.958c0-.136.114-.28.25-.308 2.967-.579 6.013-.579 8.98 0 .143.029.25.172.25.308v.958c0 .143-.107.279-.25.307" mask="url(#56zs53twke)"/>
                                                <path fill="#000" d="M72.657 179.923L69.983 182.597 69.754 182.369 72.435 179.695z" mask="url(#56zs53twke)"/>
                                                <path fill="#000" d="M72.434 179.7L75.115 182.381 74.886 182.61 72.205 179.929zM46.459 179.246c0 1.86 1.508 3.36 3.367 3.36h1.502c1.852 0 3.36-1.5 3.36-3.36h-8.23z" mask="url(#56zs53twke)"/>
                                                <path fill="#000" d="M46.461 179.373L46.811 179.373 46.811 174.332 46.461 174.332zM54.34 179.373L54.69 179.373 54.69 174.332 54.34 174.332zM50.393 179.373L50.744 179.373 50.744 174.332 50.393 174.332z" mask="url(#56zs53twke)"/>
                                                <path fill="#000" d="M55.061 174.672c-2.96.58-6.013.58-8.973 0-.136-.028-.257-.164-.257-.314v-.951c0-.136.121-.279.257-.308 2.96-.579 6.013-.579 8.973 0 .15.029.258.172.258.308v.95c0 .15-.107.287-.258.315" mask="url(#56zs53twke)"/>
                                                <path fill="#000" d="M50.802 170.769L48.121 173.45 47.899 173.222 50.573 170.548z" mask="url(#56zs53twke)"/>
                                                <path fill="#000" d="M50.578 170.553L53.252 173.234 53.031 173.456 50.35 170.782zM27.474 164.792c0 1.86 1.509 3.361 3.368 3.361h1.501c1.852 0 3.353-1.502 3.353-3.36h-8.222z" mask="url(#56zs53twke)"/>
                                                <path fill="#000" d="M27.47 164.915L27.821 164.915 27.821 159.868 27.47 159.868zM35.357 164.915L35.707 164.915 35.707 159.868 35.357 159.868zM31.396 164.915L31.746 164.915 31.746 159.868 31.396 159.868z" mask="url(#56zs53twke)"/>
                                                <path fill="#000" d="M36.076 160.22c-2.967.578-6.013.578-8.973 0-.143-.03-.258-.172-.258-.315v-.951c0-.136.115-.28.258-.315 2.96-.572 6.006-.572 8.973 0 .143.036.257.179.257.315v.95c0 .144-.114.287-.257.315" mask="url(#56zs53twke)"/>
                                                <path fill="#000" d="M31.817 156.316L29.136 158.997 28.914 158.769 31.588 156.095z" mask="url(#56zs53twke)"/>
                                                <path fill="#000" d="M31.587 156.1L34.268 158.781 34.039 159.002 31.365 156.328zM13.02 145.905c0 1.859 1.509 3.36 3.368 3.36h1.501c1.852 0 3.354-1.501 3.354-3.36H13.02z" mask="url(#56zs53twke)"/>
                                                <path fill="#000" d="M13.013 146.032L13.37 146.032 13.37 140.992 13.013 140.992zM20.907 146.032L21.257 146.032 21.257 140.992 20.907 140.992zM16.945 146.032L17.296 146.032 17.296 140.992 16.945 140.992z" mask="url(#56zs53twke)"/>
                                                <path fill="#000" d="M21.622 141.332c-2.967.58-6.013.58-8.98 0-.136-.029-.25-.165-.25-.315v-.95c0-.136.114-.28.25-.315 2.967-.572 6.013-.572 8.98 0 .143.036.25.179.25.314v.951c0 .15-.107.286-.25.315" mask="url(#56zs53twke)"/>
                                                <path fill="#000" d="M17.363 137.429L14.682 140.11 14.453 139.881 17.134 137.207z" mask="url(#56zs53twke)"/>
                                                <path fill="#000" d="M17.133 137.212L19.814 139.893 19.585 140.115 16.911 137.441zM3.852 123.945c0 1.86 1.51 3.36 3.368 3.36h1.502c1.851 0 3.353-1.5 3.353-3.36H3.852z" mask="url(#56zs53twke)"/>
                                                <path fill="#000" d="M3.854 124.068L4.204 124.068 4.204 119.027 3.854 119.027zM11.733 124.068L12.084 124.068 12.084 119.027 11.733 119.027zM7.779 124.068L8.137 124.068 8.137 119.027 7.779 119.027z" mask="url(#56zs53twke)"/>
                                                <path fill="#000" d="M12.455 119.372c-2.96.58-6.014.58-8.974 0-.143-.028-.257-.164-.257-.314v-.951c0-.136.114-.28.257-.308 2.96-.579 6.013-.579 8.974 0 .143.029.257.172.257.308v.95c0 .15-.114.287-.257.315" mask="url(#56zs53twke)"/>
                                                <path fill="#000" d="M8.195 115.469L5.514 118.15 5.292 117.921 7.967 115.247z" mask="url(#56zs53twke)"/>
                                                <path fill="#000" d="M7.972 115.252L10.646 117.934 10.417 118.155 7.743 115.481zM.633 100.422c0 1.859 1.502 3.367 3.361 3.367h1.501c1.852 0 3.361-1.508 3.361-3.367H.633z" mask="url(#56zs53twke)"/>
                                                <path fill="#000" d="M.629 100.544L.98 100.544.98 95.503.629 95.503zM8.508 100.544L8.859 100.544 8.859 95.503 8.508 95.503zM4.555 100.544L4.905 100.544 4.905 95.503 4.555 95.503z" mask="url(#56zs53twke)"/>
                                                <path fill="#000" d="M9.229 95.851c-2.96.58-6.006.58-8.974 0-.136-.028-.257-.171-.257-.307v-.958c0-.136.121-.279.257-.308 2.968-.579 6.013-.579 8.974 0 .15.03.257.172.257.308v.958c0 .136-.107.279-.257.307" mask="url(#56zs53twke)"/>
                                                <path fill="#000" d="M4.969 91.952L2.295 94.633 2.066 94.404 4.748 91.723z" mask="url(#56zs53twke)"/>
                                                <path fill="#000" d="M4.746 91.735L7.427 94.416 7.199 94.638 4.517 91.964zM3.754 76.751c0 1.859 1.502 3.368 3.361 3.368h1.501c1.852 0 3.361-1.509 3.361-3.368H3.754z" mask="url(#56zs53twke)"/>
                                                <path fill="#000" d="M3.747 76.878L4.097 76.878 4.097 71.837 3.747 71.837zM11.633 76.878L11.991 76.878 11.991 71.837 11.633 71.837zM7.679 76.878L8.029 76.878 8.029 71.837 7.679 71.837z" mask="url(#56zs53twke)"/>
                                                <path fill="#000" d="M12.357 72.181c-2.968.58-6.014.58-8.98 0-.137-.028-.251-.171-.258-.307v-.958c0-.143.121-.279.257-.308 2.967-.579 6.013-.579 8.98 0 .144.029.25.165.25.308v.958c0 .136-.106.279-.25.307" mask="url(#56zs53twke)"/>
                                                <path fill="#000" d="M8.09 68.278L5.416 70.959 5.187 70.731 7.869 68.049z" mask="url(#56zs53twke)"/>
                                                <path fill="#000" d="M7.867 68.062L10.548 70.743 10.32 70.972 7.645 68.29zM12.922 54.791c0 1.86 1.502 3.368 3.36 3.368h1.502c1.852 0 3.36-1.509 3.36-3.368h-8.222z" mask="url(#56zs53twke)"/>
                                                <path fill="#000" d="M12.913 54.92L13.263 54.92 13.263 49.879 12.913 49.879zM20.799 54.92L21.15 54.92 21.15 49.879 20.799 49.879zM16.845 54.92L17.196 54.92 17.196 49.879 16.845 49.879z" mask="url(#56zs53twke)"/>
                                                <path fill="#000" d="M21.518 50.222c-2.96.579-6.013.579-8.973 0-.136-.029-.258-.172-.258-.308v-.958c0-.136.122-.279.258-.307 2.96-.58 6.013-.58 8.973 0 .15.028.257.171.257.307v.958c0 .136-.107.279-.257.308" mask="url(#56zs53twke)"/>
                                                <path fill="#000" d="M17.259 46.322L14.577 49.003 14.356 48.774 17.03 46.093z" mask="url(#56zs53twke)"/>
                                                <path fill="#000" d="M17.035 46.102L19.709 48.783 19.487 49.012 16.806 46.331zM27.327 35.904c0 1.859 1.502 3.367 3.36 3.367h1.502c1.852 0 3.36-1.508 3.36-3.367h-8.222z" mask="url(#56zs53twke)"/>
                                                <path fill="#000" d="M27.32 36.03L27.671 36.03 27.671 30.989 27.32 30.989zM35.207 36.03L35.557 36.03 35.557 30.989 35.207 30.989zM31.253 36.03L31.603 36.03 31.603 30.989 31.253 30.989z" mask="url(#56zs53twke)"/>
                                                <path fill="#000" d="M35.922 31.334c-2.96.58-6.013.58-8.973 0-.136-.028-.257-.171-.257-.307v-.958c0-.136.121-.28.257-.308 2.96-.579 6.013-.579 8.973 0 .15.029.258.172.258.308v.958c0 .136-.108.279-.258.307" mask="url(#56zs53twke)"/>
                                                <path fill="#000" d="M31.663 27.435L28.982 30.116 28.76 29.887 31.434 27.206z" mask="url(#56zs53twke)"/>
                                                <path fill="#000" d="M31.44 27.218L34.114 29.899 33.892 30.121 31.211 27.447zM46.515 21.248c0 1.859 1.502 3.367 3.36 3.367h1.502c1.852 0 3.36-1.508 3.36-3.367h-8.222z" mask="url(#56zs53twke)"/>
                                                <path fill="#000" d="M46.511 21.372L46.861 21.372 46.861 16.331 46.511 16.331zM54.39 21.372L54.748 21.372 54.748 16.331 54.39 16.331zM50.436 21.372L50.786 21.372 50.786 16.331 50.436 16.331z" mask="url(#56zs53twke)"/>
                                                <path fill="#000" d="M55.11 16.678c-2.96.58-6.006.58-8.973 0-.136-.029-.258-.172-.258-.307v-.958c0-.136.122-.28.258-.308 2.967-.58 6.013-.58 8.973 0 .15.029.257.172.257.308v.958c0 .135-.107.278-.257.307" mask="url(#56zs53twke)"/>
                                                <path fill="#000" d="M50.851 12.778L48.177 15.46 47.948 15.231 50.629 12.55z" mask="url(#56zs53twke)"/>
                                                <path fill="#000" d="M50.627 12.558L53.308 15.24 53.079 15.468 50.398 12.787zM68.223 12.084c0 1.859 1.502 3.36 3.36 3.36h1.502c1.852 0 3.36-1.502 3.36-3.36h-8.222z" mask="url(#56zs53twke)"/>
                                                <path fill="#000" d="M68.218 12.206L68.569 12.206 68.569 7.165 68.218 7.165zM76.097 12.206L76.448 12.206 76.448 7.165 76.097 7.165zM72.151 12.206L72.501 12.206 72.501 7.165 72.151 7.165z" mask="url(#56zs53twke)"/>
                                                <path fill="#000" d="M76.818 7.51c-2.96.579-6.013.579-8.973 0-.136-.029-.257-.165-.257-.308v-.95c0-.144.121-.287.257-.315 2.96-.58 6.013-.58 8.973 0 .15.028.258.171.258.314v.951c0 .143-.108.279-.258.308" mask="url(#56zs53twke)"/>
                                                <path fill="#000" d="M72.559 3.61L69.878 6.291 69.656 6.062 72.337 3.381z" mask="url(#56zs53twke)"/>
                                                <path fill="#000" d="M72.336 3.394L75.01 6.075 74.788 6.297 72.107 3.623zM91.943 9.011c0 1.86 1.508 3.36 3.367 3.36h1.495c1.851 0 3.36-1.5 3.36-3.36h-8.222z" mask="url(#56zs53twke)"/>
                                                <path fill="#000" d="M91.935 9.138L92.292 9.138 92.292 4.098 91.935 4.098zM99.828 9.138L100.179 9.138 100.179 4.098 99.828 4.098zM95.867 9.138L96.218 9.138 96.218 4.098 95.867 4.098z" mask="url(#56zs53twke)"/>
                                                <path fill="#000" d="M100.545 4.438c-2.968.58-6.013.58-8.98 0-.137-.029-.25-.164-.25-.307V3.18c0-.143.113-.286.25-.315 2.967-.58 6.012-.58 8.98 0 .143.029.25.172.25.315v.95c0 .144-.107.28-.25.308" mask="url(#56zs53twke)"/>
                                                <path fill="#000" d="M96.278 0.538L93.604 3.219 93.375 2.99 96.057 0.309z" mask="url(#56zs53twke)"/>
                                                <path fill="#000" d="M96.055.322L98.736 3.003 98.508 3.225 95.834.551zM115.515 12.084c0 1.859 1.501 3.36 3.36 3.36h1.502c1.852 0 3.36-1.502 3.36-3.36h-8.222z" mask="url(#56zs53twke)"/>
                                                <path fill="#000" d="M115.508 12.206L115.859 12.206 115.859 7.165 115.508 7.165zM123.395 12.206L123.745 12.206 123.745 7.165 123.395 7.165zM119.441 12.206L119.791 12.206 119.791 7.165 119.441 7.165z" mask="url(#56zs53twke)"/>
                                                <path fill="#000" d="M124.11 7.51c-2.96.579-6.006.579-8.973 0-.136-.029-.257-.165-.257-.308v-.95c0-.144.121-.287.257-.315 2.967-.58 6.013-.58 8.973 0 .15.028.258.171.258.314v.951c0 .143-.107.279-.258.308" mask="url(#56zs53twke)"/>
                                                <path fill="#000" d="M119.851 3.61L117.177 6.291 116.948 6.062 119.63 3.381z" mask="url(#56zs53twke)"/>
                                                <path fill="#000" d="M119.627 3.394L122.309 6.075 122.08 6.297 119.399 3.623zM137.168 21.049c0 1.859 1.508 3.36 3.367 3.36h1.502c1.852 0 3.36-1.501 3.36-3.36h-8.23z" mask="url(#56zs53twke)"/>
                                                <path fill="#000" d="M137.166 21.172L137.516 21.172 137.516 16.131 137.166 16.131zM145.052 21.172L145.402 21.172 145.402 16.131 145.052 16.131zM141.091 21.172L141.448 21.172 141.448 16.131 141.091 16.131z" mask="url(#56zs53twke)"/>
                                                <path fill="#000" d="M145.77 16.476c-2.96.579-6.013.579-8.973 0-.136-.029-.258-.165-.258-.308v-.958c0-.136.122-.279.258-.307 2.96-.58 6.013-.58 8.973 0 .143.028.257.171.257.307v.958c0 .143-.114.28-.257.308" mask="url(#56zs53twke)"/>
                                                <path fill="#000" d="M141.511 12.575L138.829 15.257 138.608 15.028 141.282 12.347z" mask="url(#56zs53twke)"/>
                                                <path fill="#000" d="M141.287 12.359L143.961 15.041 143.739 15.262 141.058 12.588zM156.258 35.754c0 1.859 1.508 3.36 3.367 3.36h1.502c1.852 0 3.353-1.501 3.353-3.36h-8.222z" mask="url(#56zs53twke)"/>
                                                <path fill="#000" d="M156.249 35.879L156.606 35.879 156.606 30.839 156.249 30.839zM164.143 35.879L164.493 35.879 164.493 30.839 164.143 30.839zM160.181 35.879L160.532 35.879 160.532 30.839 160.181 30.839z" mask="url(#56zs53twke)"/>
                                                <path fill="#000" d="M164.86 31.184c-2.968.58-6.013.58-8.974 0-.143-.029-.257-.172-.257-.307v-.959c0-.143.114-.278.257-.307 2.96-.58 6.006-.58 8.974 0 .143.029.257.164.257.307v.959c0 .135-.114.278-.257.307" mask="url(#56zs53twke)"/>
                                                <path fill="#000" d="M160.6 27.284L157.919 29.966 157.69 29.73 160.372 27.056z" mask="url(#56zs53twke)"/>
                                                <path fill="#000" d="M160.37 27.064L163.051 29.745 162.823 29.967 160.149 27.293zM170.662 54.69c0 1.86 1.509 3.368 3.368 3.368h1.501c1.852 0 3.353-1.509 3.353-3.368h-8.222z" mask="url(#56zs53twke)"/>
                                                <path fill="#000" d="M170.656 54.813L171.014 54.813 171.014 49.772 170.656 49.772zM178.543 54.813L178.893 54.813 178.893 49.772 178.543 49.772zM174.589 54.813L174.939 54.813 174.939 49.772 174.589 49.772z" mask="url(#56zs53twke)"/>
                                                <path fill="#000" d="M179.265 50.12c-2.967.58-6.013.58-8.973 0-.143-.029-.258-.172-.258-.307v-.958c0-.136.115-.28.258-.308 2.96-.58 6.006-.58 8.973 0 .143.029.25.172.25.308v.958c0 .135-.107.278-.25.307" mask="url(#56zs53twke)"/>
                                                <path fill="#000" d="M175.006 46.22L172.324 48.902 172.095 48.673 174.777 45.992z" mask="url(#56zs53twke)"/>
                                                <path fill="#000" d="M174.775 46.004L177.456 48.685 177.227 48.907 174.553 46.233zM170.76 145.751c0 1.86 1.509 3.368 3.368 3.368h1.501c1.852 0 3.36-1.509 3.36-3.368h-8.23z" mask="url(#56zs53twke)"/>
                                                <path fill="#000" d="M170.763 145.875L171.114 145.875 171.114 140.834 170.763 140.834zM178.643 145.875L178.993 145.875 178.993 140.834 178.643 140.834zM174.682 145.875L175.039 145.875 175.039 140.834 174.682 140.834z" mask="url(#56zs53twke)"/>
                                                <path fill="#000" d="M179.362 141.178c-2.96.58-6.013.58-8.973 0-.136-.028-.258-.164-.258-.307v-.958c0-.136.122-.28.258-.308 2.96-.579 6.013-.579 8.973 0 .143.029.257.172.257.308v.958c0 .143-.107.279-.257.307" mask="url(#56zs53twke)"/>
                                                <path fill="#000" d="M175.103 137.281L172.422 139.956 172.2 139.734 174.874 137.053z" mask="url(#56zs53twke)"/>
                                                <path fill="#000" d="M174.88 137.065L177.554 139.74 177.332 139.968 174.651 137.287zM156.258 164.54c0 1.853 1.508 3.361 3.367 3.361h1.502c1.852 0 3.353-1.508 3.353-3.36h-8.222z" mask="url(#56zs53twke)"/>
                                                <path fill="#000" d="M156.249 164.658L156.606 164.658 156.606 159.617 156.249 159.617zM164.143 164.658L164.493 164.658 164.493 159.617 164.143 159.617zM160.181 164.658L160.532 164.658 160.532 159.617 160.181 159.617z" mask="url(#56zs53twke)"/>
                                                <path fill="#000" d="M164.86 159.968c-2.968.579-6.013.579-8.974 0-.143-.036-.257-.172-.257-.315v-.95c0-.137.114-.28.257-.315 2.96-.58 6.006-.58 8.974 0 .143.035.257.178.257.314v.951c0 .143-.114.279-.257.315" mask="url(#56zs53twke)"/>
                                                <path fill="#000" d="M160.6 156.064L157.919 158.746 157.69 158.517 160.372 155.843z" mask="url(#56zs53twke)"/>
                                                <path fill="#000" d="M160.37 155.848L163.051 158.529 162.823 158.751 160.149 156.077zM137.524 179.246c0 1.86 1.501 3.36 3.367 3.36h1.495c1.852 0 3.36-1.5 3.36-3.36h-8.222z" mask="url(#56zs53twke)"/>
                                                <path fill="#000" d="M137.516 179.373L137.866 179.373 137.866 174.332 137.516 174.332zM145.402 179.373L145.76 179.373 145.76 174.332 145.402 174.332zM141.448 179.373L141.799 179.373 141.799 174.332 141.448 174.332z" mask="url(#56zs53twke)"/>
                                                <path fill="#000" d="M146.119 174.672c-2.96.58-6.006.58-8.973 0-.136-.028-.25-.164-.25-.314v-.951c0-.136.114-.279.25-.308 2.967-.579 6.013-.579 8.973 0 .15.029.257.172.257.308v.95c0 .15-.107.287-.257.315" mask="url(#56zs53twke)"/>
                                                <path fill="#000" d="M141.86 170.769L139.185 173.45 138.957 173.222 141.638 170.548z" mask="url(#56zs53twke)"/>
                                                <path fill="#000" d="M141.636 170.553L144.318 173.234 144.089 173.456 141.415 170.782zM115.41 188.358c0 1.86 1.509 3.368 3.368 3.368h1.501c1.852 0 3.36-1.509 3.36-3.368h-8.229z" mask="url(#56zs53twke)"/>
                                                <path fill="#000" d="M115.408 188.482L115.758 188.482 115.758 183.441 115.408 183.441zM123.295 188.482L123.645 188.482 123.645 183.441 123.295 183.441zM119.334 188.482L119.684 188.482 119.684 183.441 119.334 183.441z" mask="url(#56zs53twke)"/>
                                                <path fill="#000" d="M124.012 183.791c-2.96.572-6.013.572-8.973 0-.143-.035-.257-.171-.257-.314v-.951c0-.143.114-.286.257-.315 2.96-.579 6.013-.579 8.973 0 .143.029.258.172.258.315v.95c0 .144-.115.28-.258.315" mask="url(#56zs53twke)"/>
                                                <path fill="#000" d="M119.753 179.888L117.072 182.562 116.85 182.341 119.524 179.659z" mask="url(#56zs53twke)"/>
                                                <path fill="#000" d="M119.53 179.672L122.204 182.346 121.983 182.575 119.301 179.894zM95.112 90.541L43.918 205.413 54.085 205.413zM96.9 90.541L148.087 205.413 137.919 205.413z" mask="url(#56zs53twke)"/>
                                                <path fill="#000" d="M35.972 210.232L156.564 210.232 156.564 203.99 35.972 203.99z" mask="url(#56zs53twke)"/>
                                                <path fill="#000" d="M41.02 207.193L50.879 207.193 50.879 199.886 41.02 199.886zM141.313 207.916L151.78 207.916 151.78 200.601 141.313 200.601zM61.94 201.924L128.3 201.924 128.3 197.598 61.94 197.598z" mask="url(#56zs53twke)"/>
                                                <path fill="#000" d="M60.41 203.189L122.83 203.189 122.83 198.864 60.41 198.864z" mask="url(#56zs53twke)"/>
                                                <path fill="#000" d="M58.694 204.24L121.107 204.24 121.107 199.915 58.694 199.915z" mask="url(#56zs53twke)"/>
                                                <path fill="#000" d="M57.171 205.506L119.584 205.506 119.584 201.173 57.171 201.173z" mask="url(#56zs53twke)"/>
                                                <path fill="#000" d="M55.648 206.564L118.061 206.564 118.061 202.238 55.648 202.238z" mask="url(#56zs53twke)"/>
                                                <path fill="#000" d="M53.925 207.672L116.345 207.672 116.345 203.34 53.925 203.34zM66.717 203.139L129.722 203.139 129.722 198.806 66.717 198.806z" mask="url(#56zs53twke)"/>
                                                <path fill="#000" d="M68.454 204.198L131.453 204.198 131.453 199.872 68.454 199.872z" mask="url(#56zs53twke)"/>
                                                <path fill="#000" d="M69.991 205.449L132.99 205.449 132.99 201.123 69.991 201.123z" mask="url(#56zs53twke)"/>
                                                <path fill="#000" d="M71.529 206.514L134.527 206.514 134.527 202.181 71.529 202.181z" mask="url(#56zs53twke)"/>
                                                <path fill="#000" d="M73.266 207.622L136.265 207.622 136.265 203.29 73.266 203.29zM63.442 198.12L63.864 198.12 63.864 191.978 63.442 191.978zM65.465 198.12L65.88 198.12 65.88 191.978 65.465 191.978zM67.475 198.12L67.896 198.12 67.896 191.978 67.475 191.978zM69.484 198.12L69.906 198.12 69.906 191.978 69.484 191.978zM71.5 198.12L71.915 198.12 71.915 191.978 71.5 191.978zM73.516 198.12L73.931 198.12 73.931 191.978 73.516 191.978zM75.525 198.12L75.947 198.12 75.947 191.978 75.525 191.978zM77.535 198.12L77.956 198.12 77.956 191.978 77.535 191.978zM79.551 198.12L79.966 198.12 79.966 191.978 79.551 191.978zM81.56 198.12L81.982 198.12 81.982 191.978 81.56 191.978zM83.576 198.12L83.998 198.12 83.998 191.978 83.576 191.978zM85.593 198.12L86.007 198.12 86.007 191.978 85.593 191.978zM87.602 198.12L88.016 198.12 88.016 191.978 87.602 191.978zM89.611 198.12L90.033 198.12 90.033 191.978 89.611 191.978zM91.627 198.12L92.049 198.12 92.049 191.978 91.627 191.978zM93.644 198.12L94.058 198.12 94.058 191.978 93.644 191.978zM95.653 198.12L96.075 198.12 96.075 191.978 95.653 191.978zM97.662 198.12L98.084 198.12 98.084 191.978 97.662 191.978zM99.685 198.12L100.1 198.12 100.1 191.978 99.685 191.978zM101.694 198.12L102.109 198.12 102.109 191.978 101.694 191.978zM103.704 198.12L104.125 198.12 104.125 191.978 103.704 191.978zM105.72 198.12L106.135 198.12 106.135 191.978 105.72 191.978zM107.736 198.12L108.151 198.12 108.151 191.978 107.736 191.978zM109.745 198.12L110.167 198.12 110.167 191.978 109.745 191.978zM111.754 198.12L112.176 198.12 112.176 191.978 111.754 191.978zM113.771 198.12L114.186 198.12 114.186 191.978 113.771 191.978zM115.787 198.12L116.209 198.12 116.209 191.978 115.787 191.978zM117.796 198.12L118.218 198.12 118.218 191.978 117.796 191.978zM119.813 198.12L120.227 198.12 120.227 191.978 119.813 191.978zM121.822 198.12L122.236 198.12 122.236 191.978 121.822 191.978zM123.838 198.12L124.26 198.12 124.26 191.978 123.838 191.978zM125.847 198.12L126.269 198.12 126.269 191.978 125.847 191.978z" mask="url(#56zs53twke)"/>
                                                <path fill="#000" d="M63.828 192.264L126.126 192.264 126.126 191.978 63.828 191.978z" mask="url(#56zs53twke)"/>
                                            </g>
                                        </g>
                                        <path fill="#65C8D0" d="M2061.262 286.217L2061.262 279.509 2070.216 279.509 2070.216 292.925 2117.226 292.925 2117.226 261.62 2130.657 261.62 2130.657 270.565 2144.088 270.565 2144.088 279.509 2150.804 279.509 2150.804 210.191 2177.666 210.191 2177.666 283.981 2188.859 283.981 2188.859 205.719 2191.098 205.719 2191.098 167.084 2191.098 164.125 2191.098 154.289 2197.813 154.289 2197.813 163.233 2217.96 163.233 2217.96 178.886 2222.437 178.886 2222.437 205.719 2224.676 205.719 2224.676 290.689 2225.421 290.689 2235.869 290.689 2235.869 232.551 2249.3 232.551 2249.3 248.204 2307.502 248.204 2307.502 178.886 2323.172 178.886 2323.172 163.233 2336.603 163.233 2336.603 178.886 2358.989 178.886 2358.989 277.273 2379.136 277.273 2379.136 243.732 2392.567 243.732 2392.567 232.551 2399.283 232.551 2399.283 160.997 2405.998 160.997 2405.998 140.872 2408.237 140.872 2408.237 160.997 2430.622 160.997 2430.622 277.273 2495.54 277.273 2495.54 20.125 2508.971 20.125 2508.971 8.944 2515.687 8.944 2515.687 0 2520.164 0 2520.164 8.944 2542.55 8.944 2542.55 20.125 2573.889 20.125 2573.889 219.135 2585.082 219.135 2585.082 131.928 2607.467 131.928 2607.467 210.191 2614.183 210.191 2614.183 29.069 2618.66 29.069 2618.66 15.652 2620.899 15.652 2620.899 31.305 2667.908 31.305 2667.908 237.934 2708.202 236.574 2708.202 156.525 2744.021 156.525 2744.021 234.787 2764.166 234.787 2764.166 93.915 2788.79 93.915 2788.79 80.499 2806.698 80.499 2806.698 53.666 2806.698 40.249 2811.175 40.249 2811.175 26.833 2813.414 26.833 2813.414 40.249 2820.129 40.249 2820.129 53.666 2838.038 53.666 2838.038 136.4 2853.708 136.4 2853.708 169.941 2869.377 169.941 2869.377 190.066 2887.286 190.066 2887.286 185.594 2900.717 185.594 2900.717 232.551 2916.387 232.551 2916.387 261.62 2929.818 261.62 2929.818 268.329 2943.249 268.329 2943.249 295.161 2917.871 295.161 2915.127 295.161 2838.25 295.161 2823.151 295.161 2813.541 295.161 2806.676 295.161 2795.696 295.161 2790.204 295.161 2765.495 295.161 2762.749 295.161 2743.529 295.161 2740.784 295.161 2707.837 295.161 2666.655 295.161 2496.431 295.161 2357.78 295.161 2306.99 295.161 2247.959 295.161 2235.605 295.161 2215.012 295.161 2213.64 295.161 2188.929 295.161 2151.865 295.161 2143.627 295.161 2136.764 295.161 2131.273 295.161 2129.9 295.161 2117.546 295.161 2070.87 295.161 2059.89 295.161 2047.831 295.161 2047.831 286.217z" opacity=".2" transform="translate(-1946.582 -214.716) translate(0 139.763)"/>
                                        <path fill="#ADE1E7" d="M1523.036 293.303H2424.014V368.82H1523.036z" transform="translate(-1946.582 -214.716) translate(0 139.763)"/>
                                        <path fill="#ADE1E7" d="M2071.566 37.756l-.856 56.216-10.242 19.502v36.639h-7.022v4.765h7.022v10.757h-7.022v4.762h7.022v10.75h-7.022v4.768h7.022v10.753h-7.022v4.758h7.022v73.803h-13.161v-12.256h-30.602v-65.412h-3.206l-14.072-8.307-13.534 8.307h-3.206v54.914h-17.744v-86.768l-30.15-2.567-15.625 2.123v102.864h-9.76v-14.943h-19.386l-1.453-10.143h-5.718v-85.786h-5.39v-2.39h-21.768v2.39h-5.39v60.196h-8.427v-37.045h-37.037v69.509h-7.185v12.61h-19.939v-102.4l-27.53-2.087-10.215 2.088v56.01h-8.21v35.694h-9.272v-8.79h-25.656v27.737h-16.35v-21.634h-10.17v-6.102c0-5.988-10.86-23.491-10.86-23.491s-10.839 17.503-10.839 23.49v6.103h-11.532v21.634h-10.07v-80.431h-6.736v-5.382h-38.614v5.382h-6.474v39.836h-19.77v37.945h-19.003v-59.31h-17.275l.293-24.794h-12.771c-12.24-12.09-24.28-5.161-30.357 0h-14.035l.014 67.129-19.41 1.433v-46.697l-20.36-1.864-.104-55.458-10.342-1.943-25.222 1.054-.37 86.76H1367.1v-51.306l-22.934-1.413-9.831 2.543v31.874h-17.244v38.397h-10.318v-27.495h-29.214v30.42h-12.213v-24.363h-10.311v-30.282h-5.055v-2.02h-23.052v2.02h-4.852v47.64h-11.726v24.632h-9.034v-29.335h-21.04v10.002h-1.428V232.26h-2.63v-8.762h-1.5v-45.79l-13.114-1.916-26.557 1.916v45.79h-1.501v8.762h-2.195v23.491h-5.552v14.289h-8.058v-27.66h-21.03v-46.435h-14.534v-5.448h-14.984v5.448h-4.044v58.549h-30.598v-17.362h-17.63l-.16-56.075-31.667.11v4.038h-2.972v-4.038h-9.969v4.038h-3.102v43.548h-16.04v-15.016h-6.046c-7.284-8.062-14.272-3.755-18.002 0h-6.019v57.309h-8.92l-.072-17.22c-27.752-29.029-51.99-13.224-62.795 0H822.46v-31.899H812.33v-67.063h-7.043l-1.943-3.786h-28.28l-1.966 3.786h-6.812v85.548h-35.53V173.88h-7.019l-1.967-3.787-14.045-21.513-14.23 21.513-1.944 3.787h-6.843v48.047h-12.592v35.168h-21.163v-95.291h-29.125v-18.585l-42.287 3.583v65.295h-23.027v26.647h-9.742v-67.307h-7.595v-4.414h-5.249v-10.756h-9.255v-9.513h-17.968v8.11h-15.501v-3.335H478.13v10.526h-6.211v9.103H461v9.382c0 .548-6.625 0-6.625 0v13.84l-3.403 3.722h-1.88v3.29H444.7v17.972l-11.27.075v-11.215h-23.597v-45.211h-51.945v5.389h1.932v14.302h-15.542v6.777h-6.788v6.774h-6.785v6.777h-6.787v6.774h-6.785v6.777h-6.787v42.869h-3.544v10.526h-10.246v17.764l-28.38.555c-.137-6.322-.81-39.898.339-59.393 1.96-.62 3.389-2.422 3.389-4.579 0-1.326-.542-2.536-1.43-3.407 1.73-.934 3.452-1.74 5.184-2.36 2.26-.82 4.548-1.251 6.746-1.062 2.199.176 4.324.986 6.333 2.274 2.036 1.261 3.903 2.977 5.914 4.745-.783-2.564-2.198-4.924-4.21-6.878-1.942-1.905-4.651-3.307-7.543-3.573 2.35-.361 4.727-.337 7.102.228 2.691.606 5.31 1.867 7.985 3.36-1.691-2.564-4.141-4.67-7.126-5.944-2.971-1.289-6.432-1.568-9.604-.896-1.228.251-2.401.617-3.526 1.085.227-.179.441-.379.669-.568 2.174-1.72 4.414-3.322 6.826-4.62 2.401-1.313 4.98-2.257 7.937-2.636-2.806-1.086-6.108-.834-9 .124-2.93.96-5.587 2.55-7.937 4.43-2.084 1.665-3.927 3.57-5.583 5.63.038-.592.062-1.178.072-1.767.521-1.289 1.077-2.564 1.698-3.787 1.125-2.256 2.45-4.375 4.068-6.295 1.602-1.946 3.548-3.635 5.815-5.25-2.785.254-5.476 1.491-7.726 3.28-1.691 1.378-3.12 3.066-4.27 4.92-.292-1.94-.744-3.86-1.428-5.713-.949-2.55-2.312-5.11-4.496-6.805.97 2.53 1.463 4.986 1.856 7.487.087.58.149 1.148.225 1.727-.718-1.365-1.615-2.636-2.716-3.773-2.146-2.223-5.218-3.632-8.15-3.46 2.629 1.293 4.627 3.057 6.038 5.213 1.442 2.133 2.416 4.58 3.185 7.13.104.368.19.733.293 1.085-.541-.834-1.128-1.65-1.784-2.436-1.994-2.357-4.496-4.352-7.291-5.692-2.792-1.337-5.825-2.068-8.845-1.964 2.706 1.323 5.204 2.673 7.458 4.313 1.69 1.224 3.243 2.588 4.662 4.073-.366-.262-.722-.53-1.112-.768-2.733-1.702-5.876-2.788-9.065-3.09-3.171-.29-6.367.113-9.234 1.288 3.081.265 6.004.616 8.758 1.399 2.398.658 4.665 1.615 6.784 2.828-.39-.09-.793-.169-1.2-.217-3.562-.465-7.037.645-9.829 2.336-2.819 1.716-5.159 3.973-6.977 6.585 2.781-1.537 5.432-3.091 8.185-4.149 2.733-1.089 5.539-1.681 8.179-1.326 1.566.193 3.07.72 4.496 1.516-1.07-.345-2.18-.593-3.306-.707-3.53-.379-7.067.403-10.1 1.854-3.044 1.475-5.698 3.532-7.837 6.03 2.999-1.334 5.877-2.64 8.824-3.48 2.919-.862 5.876-1.251 8.744-.958 1.404.148 2.792.465 4.134.93-1.177.934-2.012 2.133-2.416 3.508 1.505-.541 2.782-1.086 3.955-1.351 1.05-.238 1.922-.238 2.795-.062.642.403 1.29.83 1.919 1.299-1.618.772-2.74 2.412-2.74 4.317 0 1.93 1.139 3.594 2.778 4.352-1.15 19.632-.476 53.246-.342 59.668l-21.988.317c.079-3.548.555-26.433-.228-39.681 1.087-.507 1.846-1.602 1.846-2.877 0-1.265-.745-2.35-1.808-2.867.42-.303.835-.579 1.266-.844.566-.127 1.15-.114 1.843.038.773.176 1.618.527 2.62.882-.28-.91-.826-1.692-1.609-2.308.9-.314 1.808-.517 2.744-.62 1.894-.187 3.844.065 5.773.633 1.95.555 3.844 1.427 5.828 2.295-1.418-1.643-3.16-3.004-5.183-3.973-1.995-.957-4.334-1.478-6.657-1.226-.759.08-1.49.241-2.198.458.946-.52 1.943-.872 2.968-1 1.756-.226 3.6.163 5.407.883 1.819.696 3.565 1.73 5.411 2.74-1.204-1.727-2.743-3.219-4.613-4.356-1.847-1.11-4.145-1.84-6.495-1.537-.266.038-.531.076-.783.138 1.404-.796 2.895-1.426 4.475-1.867 1.816-.503 3.752-.744 5.784-.924-1.894-.768-4.006-1.047-6.101-.84-2.102.2-4.182.902-5.99 2.029-.256.162-.484.341-.736.517.95-.982 1.974-1.895 3.085-2.698 1.491-1.089 3.148-1.97 4.928-2.856-1.994-.062-4.01.43-5.852 1.302-1.83.9-3.49 2.195-4.814 3.773-.428.506-.808 1.047-1.174 1.602.063-.241.125-.479.2-.72.508-1.675 1.14-3.29 2.099-4.717.935-1.416 2.25-2.587 3.978-3.432-1.929-.113-3.95.82-5.369 2.285-.732.744-1.325 1.585-1.808 2.484l.155-1.137c.262-1.654.594-3.27 1.239-4.944-1.453 1.12-2.354 2.815-2.985 4.49-.456 1.236-.742 2.497-.95 3.772-.744-1.21-1.69-2.336-2.815-3.242-1.477-1.185-3.26-2.006-5.093-2.167 1.49 1.071 2.767 2.18 3.84 3.47 1.063 1.26 1.936 2.673 2.678 4.158.407.81.773 1.643 1.111 2.501.018.393.042.782.066 1.161-1.097-1.35-2.312-2.611-3.703-3.72-1.542-1.241-3.295-2.285-5.231-2.919-1.922-.627-4.093-.803-5.953-.09 1.96.255 3.651.886 5.245 1.744 1.591.858 3.072 1.915 4.51 3.056.156.124.29.251.442.379-.745-.307-1.515-.558-2.322-.72-2.098-.441-4.386-.269-6.356.592-1.957.834-3.593 2.237-4.704 3.925 1.77-.986 3.5-1.816 5.283-2.22 1.553-.368 3.134-.392 4.69-.154-1.922.19-3.703 1.113-4.99 2.357-1.329 1.305-2.253 2.856-2.785 4.548 1.329-1.165 2.568-2.298 3.907-3.129 1.338-.847 2.743-1.388 4.196-1.506 1.439-.124 2.954.166 4.462.71 1.135.4 2.26.944 3.413 1.55-.584.58-.94 1.375-.94 2.26 0 1.427.94 2.61 2.237 3.016.773 13.237.293 36.287.217 39.581l-107.082 2.94H0v2.018h2588.112v-40.415h-4.12v-8.276h-22.769v14.636l-6.905-.468V149.73l-36.172-1.251-13.01 1.25v113.867h-10.027v-18.63h-7.52V237.2h-5.583v-6.73h-6.722v-6.418h-15.367v-41.556h-2.83v-3.507h-40.905v3.507h-3.237v68.12h-14.804v-142.79h-4.145l-1.035-2.853h-43.808l-1.042 2.853h-4.666v111.537H2332.5V188.32h-39.394v35.392l-9.328 2.784-.345-3.773-6.919-5.516-6.632 5.857-.104 4.5-34.16 5.258v20.421h-17.012v-8.276h-28.107v23.16h-7.847v-70.566h-4.852v-2.826h-34.518v2.826h-4.044v54.914h-11.992V229.21h-15.367v-5.775h-13.61v37.377h-15.611v-59.387h7.019v-4.758h-7.019v-10.753h7.019v-4.769h-7.019v-10.75h7.019v-4.761h-7.019v-10.757h7.019v-4.765h-7.019v-7.683l-9.783-18.303-1.308-86.37z" transform="translate(-1946.582 -214.716) translate(0 139.763)"/>
                                    </g>
                                </g>
                                <g opacity=".7">
                                    <g>
                                        <path fill="#ADE1E7" d="M1774.918 72.79l-.856 56.217-10.241 19.501v36.64h-7.023v4.764h7.023v10.757h-7.023v4.762h7.023v10.75h-7.023v4.768h7.023v10.753h-7.023v4.759h7.023v73.802h-13.161v-12.256h-30.6v-65.412h-3.206l-14.072-8.307-13.533 8.307h-3.206v54.914H1668.3V200.74l-30.148-2.566-15.625 2.122v102.865h-9.758v-14.943h-19.386l-1.453-10.144h-5.717V192.29h-5.39v-2.391h-21.767v2.39h-5.39v60.197h-8.426V215.44h-37.036v69.509h-7.184v12.61h-19.938v-102.4l-27.529-2.087-10.214 2.088v56.01h-8.209v35.695h-9.272v-8.79h-25.655v27.736h-16.35v-21.634h-10.168v-6.102c0-5.988-10.86-23.491-10.86-23.491s-10.838 17.503-10.838 23.491v6.102h-11.532v21.634h-10.069V225.38h-6.736v-5.382h-38.612v5.382h-6.474v39.837h-19.768v37.945h-19.003v-59.31h-17.274l.293-24.794h-12.77c-12.24-12.09-24.279-5.162-30.356 0h-14.033l.013 67.128-19.41 1.433v-46.696l-20.358-1.864-.104-55.459-10.341-1.943-25.22 1.054-.37 86.76h-19.375v-51.306l-22.933-1.412-9.831 2.542v31.874h-17.243v38.397h-10.317V262.07H980.95v30.42H968.74v-24.363h-10.31v-30.282h-5.056v-2.02h-23.05v2.02h-4.852v47.64h-11.725v24.632h-9.034v-29.335h-21.038v10.002h-1.429v-23.49h-2.63v-8.763h-1.5v-45.79l-13.113-1.916-26.556 1.916v45.79h-1.501v8.762h-2.195v23.491h-5.552v14.289h-8.057v-27.66h-21.028v-46.435h-14.534v-5.447h-14.983v5.447h-4.044v58.549h-30.597v-17.362h-17.63l-.158-56.075-31.666.11v4.038h-2.971v-4.038h-9.97v4.038h-3.101v43.548H654.42V248.77h-6.045c-7.285-8.062-14.272-3.755-18.002 0h-6.018v57.309h-8.92l-.073-17.22c-27.75-29.029-51.987-13.224-62.79 0h-26.695V256.96h-10.131V189.9h-7.043l-1.943-3.787h-28.277l-1.967 3.787h-6.812v85.547h-35.528v-66.532h-7.018l-1.967-3.786-14.044-21.514-14.23 21.514-1.943 3.786h-6.843v48.047H375.54v35.168h-21.163v-95.291h-29.123v-18.585l-42.285 3.583v65.295h-23.026v26.648h-9.74V206.47h-7.596v-4.413h-5.248V191.3h-9.255v-9.513h-17.967v8.11h-15.5v-3.335h-13.071v10.526h-6.212v9.103h-10.917v9.382c0 .548-6.626 0-6.626 0v13.84l-3.402 3.722h-1.88v3.29h-4.393v17.972l-11.27.076v-11.215h-23.595v-45.212H61.328v5.389h1.933v14.302H47.719v6.777H40.93v6.774h-6.784v6.777H27.36v6.774h-6.784v6.777H13.79v42.869h-3.544v10.526H0v17.765l2291.437 5.916v-40.416h-4.12v-8.276h-22.768v14.637l-6.904-.47V184.766l-36.17-1.25-13.009 1.25V298.63h-10.027V280h-7.52v-7.766h-5.583v-6.729h-6.721v-6.419h-15.366v-41.556h-2.83v-3.507h-40.903v3.507h-3.237v68.12h-14.803v-142.79h-4.145l-1.035-2.853h-43.806l-1.042 2.853h-4.665v111.537h-10.945v-31.044h-39.393v35.392l-9.327 2.784-.345-3.773-6.918-5.516-6.633 5.857-.103 4.5-34.158 5.258v20.421h-17.012v-8.276h-28.105v23.16h-7.847v-70.566h-4.851v-2.825h-34.517v2.825h-4.044v54.914h-11.991v-23.264h-15.366v-5.775h-13.61v37.377h-15.61V236.46h7.019v-4.759h-7.019V220.95h7.019v-4.768h-7.019v-10.75h7.019v-4.762h-7.019v-10.757h7.019v-4.765h-7.019v-7.683l-9.782-18.303-1.308-86.37z" transform="translate(-1946.582 -214.716) translate(1943.209 201.754)"/>
                                        <path fill="#65C8D0" d="M266.61 294.138c-.156-7.149-.922-45.11.386-67.152 2.231-.701 3.858-2.738 3.858-5.177 0-1.5-.617-2.867-1.627-3.853 1.968-1.055 3.929-1.967 5.901-2.668 2.573-.927 5.178-1.414 7.68-1.2 2.503.199 4.923 1.114 7.21 2.571 2.317 1.426 4.443 3.366 6.733 5.364-.892-2.898-2.502-5.566-4.793-7.775-2.212-2.154-5.296-3.74-8.588-4.04 2.676-.409 5.382-.382 8.085.257 3.065.686 6.046 2.112 9.091 3.798-1.925-2.898-4.714-5.278-8.112-6.72-3.383-1.456-7.323-1.772-10.934-1.012-1.398.284-2.734.697-4.015 1.227.26-.203.503-.429.762-.643 2.475-1.944 5.025-3.755 7.771-5.224 2.734-1.484 5.67-2.552 9.036-2.98-3.194-1.227-6.954-.943-10.246.14-3.335 1.087-6.36 2.883-9.036 5.01-2.373 1.881-4.47 4.036-6.356 6.365.043-.67.07-1.332.082-1.998.594-1.457 1.226-2.898 1.933-4.281 1.28-2.552 2.79-4.948 4.632-7.118 1.823-2.2 4.039-4.11 6.62-5.936-3.17.288-6.235 1.686-8.796 3.708-1.925 1.558-3.552 3.467-4.86 5.563-.334-2.193-.849-4.363-1.627-6.459-1.08-2.883-2.632-5.777-5.119-7.694 1.104 2.86 1.666 5.637 2.114 8.466.098.654.169 1.297.255 1.951-.817-1.542-1.838-2.98-3.091-4.265-2.444-2.513-5.94-4.106-9.28-3.912 2.994 1.461 5.268 3.456 6.875 5.894 1.642 2.412 2.75 5.178 3.626 8.06.118.417.216.83.334 1.227-.616-.942-1.284-1.866-2.03-2.754-2.272-2.664-5.12-4.92-8.302-6.435-3.178-1.512-6.631-2.338-10.069-2.22 3.08 1.495 5.924 3.022 8.49 4.877 1.925 1.382 3.693 2.925 5.307 4.604-.416-.296-.82-.6-1.265-.869-3.111-1.924-6.69-3.151-10.32-3.494-3.61-.327-7.249.129-10.513 1.457 3.508.3 6.836.697 9.97 1.582 2.731.744 5.312 1.827 7.724 3.198-.444-.101-.903-.191-1.367-.246-4.054-.525-8.01.729-11.189 2.642-3.21 1.94-5.873 4.491-7.943 7.444 3.166-1.737 6.183-3.494 9.318-4.69 3.112-1.231 6.306-1.901 9.311-1.5 1.784.218 3.497.814 5.12 1.714-1.219-.39-2.484-.67-3.764-.799-4.02-.428-8.046.456-11.5 2.096-3.464 1.668-6.486 3.993-8.921 6.817 3.414-1.507 6.69-2.984 10.045-3.934 3.324-.974 6.69-1.414 9.955-1.083 1.6.167 3.179.526 4.707 1.052-1.34 1.055-2.29 2.411-2.75 3.965 1.713-.611 3.166-1.227 4.502-1.527 1.194-.268 2.188-.268 3.182-.07.73.456 1.47.94 2.184 1.469-1.842.872-3.119 2.727-3.119 4.881 0 2.181 1.297 4.063 3.163 4.92-1.309 22.197-.542 60.202-.39 67.463l3.96-.054z" transform="translate(-1946.582 -214.716) translate(1943.209 201.754)"/>
                                        <path fill="#65C8D0" d="M213.586 294.15c-.122-5.544-.718-34.984.3-52.077 1.735-.544 3-2.124 3-4.015 0-1.163-.48-2.223-1.265-2.988 1.531-.818 3.056-1.525 4.59-2.069 2.001-.719 4.027-1.097 5.973-.93 1.947.154 3.829.864 5.607 1.993 1.803 1.106 3.456 2.61 5.238 4.16-.694-2.247-1.947-4.317-3.728-6.03-1.72-1.67-4.12-2.9-6.68-3.132 2.081-.318 4.186-.296 6.289.199 2.383.532 4.702 1.637 7.07 2.946-1.497-2.248-3.666-4.094-6.31-5.212-2.63-1.13-5.695-1.374-8.503-.785-1.088.22-2.127.54-3.123.951.202-.157.391-.332.593-.498 1.925-1.508 3.908-2.912 6.044-4.051 2.126-1.151 4.409-1.98 7.028-2.311-2.485-.952-5.409-.731-7.97.108-2.594.843-4.946 2.236-7.027 3.885-1.846 1.46-3.478 3.13-4.944 4.937.033-.52.055-1.033.064-1.55.461-1.13.953-2.248 1.503-3.32.996-1.979 2.17-3.837 3.603-5.52 1.418-1.706 3.141-3.187 5.149-4.604-2.466.224-4.85 1.309-6.842 2.876-1.497 1.209-2.762 2.69-3.78 4.314-.26-1.7-.66-3.383-1.265-5.008-.84-2.236-2.047-4.48-3.981-5.967.858 2.217 1.295 4.371 1.644 6.565.076.507.131 1.006.198 1.513-.635-1.196-1.43-2.31-2.404-3.308-1.901-1.948-4.62-3.184-7.218-3.033 2.329 1.133 4.098 2.68 5.348 4.571 1.277 1.87 2.138 4.015 2.82 6.25.092.324.168.644.26.952-.48-.731-1-1.447-1.58-2.136-1.766-2.066-3.982-3.815-6.457-4.99-2.472-1.173-5.157-1.813-7.831-1.722 2.395 1.16 4.608 2.344 6.603 3.782 1.497 1.072 2.872 2.269 4.128 3.57-.324-.229-.638-.465-.984-.673-2.42-1.492-5.203-2.444-8.027-2.71-2.808-.254-5.637.1-8.177 1.13 2.73.233 5.317.54 7.756 1.227 2.123.577 4.13 1.416 6.007 2.48-.345-.079-.703-.148-1.064-.19-3.153-.408-6.23.564-8.702 2.048-2.496 1.504-4.568 3.483-6.178 5.773 2.463-1.347 4.81-2.71 7.248-3.637 2.42-.955 4.904-1.475 7.241-1.163 1.388.169 2.72.63 3.982 1.329-.947-.302-1.931-.52-2.927-.62-3.126-.332-6.258.354-8.944 1.626-2.695 1.293-5.045 3.096-6.94 5.287 2.656-1.17 5.204-2.315 7.814-3.052 2.585-.755 5.203-1.096 7.743-.84 1.243.13 2.472.408 3.66.816-1.042.819-1.781 1.87-2.139 3.076 1.333-.475 2.463-.952 3.502-1.185.929-.208 1.702-.208 2.475-.054.568.353 1.143.728 1.699 1.139-1.433.677-2.426 2.115-2.426 3.785 0 1.692 1.008 3.151 2.46 3.816-1.018 17.214-.422 46.687-.303 52.318l3.08-.042z" transform="translate(-1946.582 -214.716) translate(1943.209 201.754) matrix(-1 0 0 1 426.002 0)"/>
                                    </g>
                                </g>
                            </g>
                        </g>
                    </g>
                    <g>
                        <g transform="translate(-314 -215) translate(314 215) translate(49 80) translate(98.397 90.17) translate(77.368 234.173)">
                            <mask id="l0e2ke43mh" fill="#fff">
                                <use xlink:href="#vy94y3qagf"/>
                            </mask>
                            <path fill="url(#tk9ha482sg)" d="M7.795.679l-5.51 13.367s-3.468 1.47-1.543 4.69c1.925 3.22 8.245 6.066 9.847 6.05 3.342-.034-3.864-8.046-3.864-8.046L13.472.174 7.795.679" mask="url(#l0e2ke43mh)"/>
                        </g>
                        <path fill="#222B50" d="M85.06 251.28s8.799 10.584 7.62 13.372c-1.884 4.457-16.728-9.004-17.088-12.541-.347-3.396 4.062-4.307 4.062-4.307s.463 3.372 5.406 3.477" transform="translate(-314 -215) translate(314 215) translate(49 80) translate(98.397 90.17)"/>
                        <path fill="url(#tk9ha482sg)" d="M46.93 278.133L41.42 291.5s-3.469 1.47-1.544 4.69c1.925 3.22 8.245 6.066 9.847 6.05 3.342-.033-3.864-8.046-3.864-8.046l6.747-16.566-5.677.505" transform="translate(-314 -215) translate(314 215) translate(49 80) translate(98.397 90.17)"/>
                        <path fill="#222B50" d="M46.826 294.562s8.798 10.584 7.62 13.372c-1.885 4.456-16.729-9.005-17.089-12.542-.346-3.396 4.062-4.307 4.062-4.307s.463 3.373 5.407 3.477" transform="translate(-314 -215) translate(314 215) translate(49 80) translate(98.397 90.17)"/>
                        <g transform="translate(-314 -215) translate(314 215) translate(49 80) translate(98.397 90.17) translate(40.484 148.963)">
                            <mask id="rj26iz7m6k" fill="#fff">
                                <use xlink:href="#h9j2k0ba3i"/>
                            </mask>
                            <path fill="url(#xcngffa59j)" d="M47.834 59.166c1.736-6.448 3.558-13.018 5.424-19.605C38.365 34.891.405 22.411.405 22.411 1.78 17.053 4.21 12.36 5.317 10.315 8.866 3.762 30.516-.899 38.288.162c6.761.922 15.1 6.192 21.218 9.19 10.184 4.99 24.75 16.356 18.82 28.576-10.192 20.052-21.478 43.195-31.99 63.079-.752-.093-7.125-3.095-7.796-3.418 1.917-7.783 5.106-22.896 9.294-38.423" mask="url(#rj26iz7m6k)"/>
                        </g>
                        <g transform="translate(-314 -215) translate(314 215) translate(49 80) translate(98.397 90.17) translate(21.591 152.119)">
                            <mask id="5sqz4bonwn" fill="#fff">
                                <use xlink:href="#o7ojgpe8ll"/>
                            </mask>
                            <path fill="url(#enaa5k5n7m)" d="M31.766 97.197c2.128-6.331 4.34-12.778 6.603-19.24C26.616 64.028.355 14.662.355 14.662 2.051 9.397 9.11 3.429 12.842 1.394c6.54-3.56 10.625 3.158 18.321 4.69 6.694 1.332 16.963 24.693 20.818 29.927 7.656 10.398 16.288 29.412 14.547 34.273-1.368 3.24-1.804 5.86-3.036 7.57-11.39 19.395-25.375 43.108-37.074 62.314-.742-.137-5.686-4.356-6.334-4.72 2.38-7.651 6.563-23.008 11.682-38.251" mask="url(#5sqz4bonwn)"/>
                        </g>
                        <g transform="translate(-314 -215) translate(314 215) translate(49 80) translate(98.397 90.17) translate(44.982 32.644)">
                            <mask id="hi6icnjovq" fill="#fff">
                                <use xlink:href="#rcoin0885o"/>
                            </mask>
                            <path fill="url(#9g1edjj3hp)" d="M.189.86l1.129 26.842s10.418 9.213 16.427 8.72c6.99-.574-3.927-36.138-3.927-36.138L.188.86" mask="url(#hi6icnjovq)"/>
                        </g>
                        <g transform="translate(-314 -215) translate(314 215) translate(49 80) translate(98.397 90.17) translate(41.833 8.299)">
                            <mask id="zbssk15kct" fill="#fff">
                                <use xlink:href="#5fwkkvellr"/>
                            </mask>
                            <path fill="url(#h8hd79trds)" d="M11.232 1.82c-1.053.667-15.55 8.162-9.176 27.614 1.866 9.528 14.848 21.717 22.14-1.231C28.514 14.608 22.95-5.586 11.232 1.82" mask="url(#zbssk15kct)"/>
                        </g>
                        <path fill="#222B50" d="M75.371 10.905c.027-1.365-1.11-2.497-2.47-2.384-2.559.211-6.576-.532-10.786-3.803C52.017-3.125 45.742-.567 41.127 7.813c-2.078 3.77-2.236 8.278-1.759 12.16l-.04.076c.66 4.737 2.316 8.879 2.316 8.879s2.087-2.855 2.816-4.91c5.843-14.332 9.046-.228 20.003-1.396 9.275-.988 10.827-7.715 10.908-11.717" transform="translate(-314 -215) translate(314 215) translate(49 80) translate(98.397 90.17)"/>
                        <g transform="translate(-314 -215) translate(314 215) translate(49 80) translate(98.397 90.17) translate(40.034 23.627)">
                            <mask id="991wsq6niw" fill="#fff">
                                <use xlink:href="#wc1v7eyxku"/>
                            </mask>
                            <path fill="url(#gprghtgahv)" d="M4.53 2.698S.13-2.682.063 2.494C.009 6.602 2.991 7.1 2.991 7.1l1.539-4.4" mask="url(#991wsq6niw)"/>
                        </g>
                        <g transform="translate(-314 -215) translate(314 215) translate(49 80) translate(98.397 90.17) translate(16.193 50.227)">
                            <mask id="fa07vdx9qz" fill="#fff">
                                <use xlink:href="#2zm8j8xhgx"/>
                            </mask>
                            <path fill="url(#ymgsq0pn3y)" d="M2.676 12.4C5.983 6.684 19.406.71 27.794 1.714c0 0 4.76 5.5 13.225 3.065 6.05-1.742 6.522-3.5 6.527-4.141.009-2.133 16.279 3.561 20.489 7.04 4.988 4.115 6.351 48.883 1.484 91.635-.868 1.706-57.387 19.607-64.211 16.02-6.779-3.561-5.978-97.15-2.632-102.935" mask="url(#fa07vdx9qz)"/>
                        </g>
                        <g transform="translate(-314 -215) translate(314 215) translate(49 80) translate(98.397 90.17) translate(20.242 148.512)">
                            <mask id="u9h7lq83cC" fill="#fff">
                                <use xlink:href="#tldtcwsofA"/>
                            </mask>
                            <path fill="url(#fb2co6udeB)" d="M.603 16.393C1.304 16.018 65.547-.192 65.615.033c.791 2.695.49 1.148.746 2.484C65.493 4.223 2.568 20.565 1.35 18.55c-.607-1.006-1.538-1.732-.746-2.156" mask="url(#u9h7lq83cC)"/>
                        </g>
                        <g transform="translate(-314 -215) translate(314 215) translate(49 80) translate(98.397 90.17) translate(50.83 53.834)">
                            <mask id="5i2ifjutpF" fill="#fff">
                                <use xlink:href="#bd0nuvcyrD"/>
                            </mask>
                            <path fill="url(#zqm6ktvr3E)" d="M4.719 9.7L1.507 3.658 6.878 0.303 12.001 3.823 9.662 10.032 15.055 72.258 9.356 85.938 0.144 73.017 4.719 9.7" mask="url(#5i2ifjutpF)"/>
                        </g>
                        <g transform="translate(-314 -215) translate(314 215) translate(49 80) translate(98.397 90.17) translate(37.785 48.875)">
                            <mask id="db61f7aeyI" fill="#fff">
                                <use xlink:href="#vf4y0qmr7G"/>
                            </mask>
                            <path fill="url(#jgwofbusbH)" d="M25.748.397s-3.19 8.061-18.56 1.022C3.491 1.895.338 2.903.338 2.903s7.435 8.199 12.396 9.607c.495-.829 7.251-6.336 7.251-6.336l7.557 4.845s2.524-4.286 2.605-9.255c-.31-.497-3.203-1.222-4.4-1.367" mask="url(#db61f7aeyI)"/>
                        </g>
                        <g transform="translate(-314 -215) translate(314 215) translate(49 80) translate(98.397 90.17) translate(57.127 153.471)">
                            <mask id="a6gnnxbgmL" fill="#fff">
                                <use xlink:href="#mu25pylfuJ"/>
                            </mask>
                            <path fill="url(#2b9eafr7aK)" d="M1.156 6.228L7.822 4.735 6.774 0.037 0.108 1.53 1.156 6.228" mask="url(#a6gnnxbgmL)"/>
                        </g>
                        <g transform="translate(-314 -215) translate(314 215) translate(49 80) translate(98.397 90.17) translate(60.275 108.838)">
                            <mask id="9upyl4bgqO" fill="#fff">
                                <use xlink:href="#16pconlh1M"/>
                            </mask>
                            <path fill="url(#5sh77x6g0N)" d="M14.313 5.375c-.702-.075-1.412-.155-2.141-.24C11.515 5.054-.13-4.537.207 3.087c.315 7.126 8.942 8.92 8.942 8.92s1.795 1.078 5.164 2.285V5.375" mask="url(#9upyl4bgqO)"/>
                        </g>
                        <g transform="translate(-314 -215) translate(314 215) translate(49 80) translate(98.397 90.17) translate(67.023 57.892)">
                            <mask id="plbv04fkbR" fill="#fff">
                                <use xlink:href="#76mc3rwdoP"/>
                            </mask>
                            <path fill="url(#vexl903p3Q)" d="M4.894 53.552c.841-.989 2.712 2.214 16.202 5.068.212-.29.437-12.338.374-22.682-.747-7.727-1.804-24.614-4.103-33.317-1.097-4.153.927-2.074 3.527-.699 6.725 3.559 18.86 18.896 17.754 53.95.198 2.594-.58 7.044-1.466 9.662l.08.017c-.103.216-.215.435-.323.653-.086.21-.166.408-.252.577-.135.28-.297.546-.472.802-1.093 1.962-2.344 3.786-3.243 4.677C26.526 78.624 15.487 75.51 0 63.106c2.573-5.15 3.212-7.581 4.894-9.554" mask="url(#plbv04fkbR)"/>
                        </g>
                        <g transform="translate(-314 -215) translate(314 215) translate(49 80) translate(98.397 90.17) translate(48.58 95.312)">
                            <mask id="xu4ta8euyU" fill="#fff">
                                <use xlink:href="#qt2o8pycjS"/>
                            </mask>
                            <path fill="url(#d2qmd0saeT)" d="M10.782 2.247L.5 24.646c-.54 1.178.297 4.403 1.368 4.391l12.694-1.83c.476-.005.908-.336 1.129-.872l9.855-23.481c.513-1.226-.26-2.752-1.345-2.645L11.8 1.436c-.428.042-.801.343-1.017.811" mask="url(#xu4ta8euyU)"/>
                        </g>
                        <g transform="translate(-314 -215) translate(314 215) translate(49 80) translate(98.397 90.17) translate(.45 68.712)">
                            <mask id="52psouz58X" fill="#fff">
                                <use xlink:href="#1hq22qnb4V"/>
                            </mask>
                            <path fill="url(#54n6h11c6W)" d="M10.521 6.706c-3.972 4.217-17.84 53.3-4.62 56.652 27.862 7.066 44.703-3.081 44.703-3.081s8.623-1.795 8.938-8.921c.338-7.624-11.308 1.968-11.965 2.046-19.67 2.338-31.523.75-30.709-3.506 2.19-11.517 1.543-37.989 5.191-46.63 2.299-5.448-5.389-3.08-11.538 3.44" mask="url(#52psouz58X)"/>
                        </g>
                        <g transform="translate(-314 -215) translate(314 215) translate(49 80) translate(98.397 90.17) translate(0 57.892)">
                            <mask id="mmy1vbqldaa" fill="#fff">
                                <use xlink:href="#2pxld77x2Y"/>
                            </mask>
                            <path fill="url(#i1urur52pZ)" d="M.459 59.859C-.261 21.466 13.239 4.846 20.65 1.044c2.865-1.468 4.138-.378 3.684 3.488-3.153 26.811-4.408 49.466-6.243 57.1 15.352 2.315 29.193.86 29.701 2.222.994 2.66.58 1.911 2.568 8.475-20.556 6.979-43.645 8.463-47.914-.499C1.322 69.464.157 63.221.459 59.86" mask="url(#mmy1vbqldaa)"/>
                        </g>
                    </g>
                </g>
            </g>
        </g>
    </g>
</svg>
